<svg id="svgexport-17_9_" data-name="svgexport-17 (9)" xmlns="http://www.w3.org/2000/svg" width="15" height="18.287" viewBox="0 0 15 18.287">
  <path id="Path_203" data-name="Path 203" d="M56.587,11.584l-.006.006-6.393,6.4a1,1,0,0,1-.167.134l-.184.1-.126.042h-.092a1.18,1.18,0,0,1-.427,0h-.184l-.142-.075a1.012,1.012,0,0,1-.218-.159L42.229,11.59a1.1,1.1,0,0,1-.006-1.55l.006-.006a1.121,1.121,0,0,1,1.548,0L47.6,13.85a.418.418,0,0,0,.711-.293V1.1a1.1,1.1,0,1,1,2.192,0V13.557a.418.418,0,0,0,.711.293l3.808-3.816a1.121,1.121,0,0,1,1.557,0A1.1,1.1,0,0,1,56.587,11.584Z" transform="translate(-41.905 0)" fill="#fff" />
</svg>
