<svg id="svgexport-17_9_" data-name="svgexport-17 (9)" xmlns="http://www.w3.org/2000/svg" width="15" height="18.288" viewBox="0 0 15 18.288">
  <path id="Path_203" data-name="Path 203" d="M56.587,6.7,56.58,6.7,50.187.3A1,1,0,0,0,50.02.162l-.184-.1L49.71.02h-.092a1.18,1.18,0,0,0-.427,0h-.184L48.865.1a1.012,1.012,0,0,0-.218.159L42.229,6.7a1.1,1.1,0,0,0-.006,1.55l.006.006a1.121,1.121,0,0,0,1.548,0L47.6,4.438a.418.418,0,0,1,.711.293v12.46a1.1,1.1,0,1,0,2.193,0V4.731a.418.418,0,0,1,.711-.293l3.808,3.816a1.121,1.121,0,0,0,1.557,0A1.1,1.1,0,0,0,56.587,6.7Z" transform="translate(-41.905 0)" fill="#fff"/>
</svg>
