<svg xmlns="http://www.w3.org/2000/svg" width="33.13" height="22.087" viewBox="0 0 33.13 22.087">
  <g id="svgexport-1" transform="translate(0 -0.331)">
    <path id="Path_26089" data-name="Path 26089" d="M0,.331H33.13V22.418H0Z" transform="translate(0 0)" fill="#f0f0f0"/>
    <path id="Path_26090" data-name="Path 26090" d="M0,42.994H33.13v2.745H0Zm0,5.491H33.13V51.23H0Zm0,5.49H33.13V56.72H0Zm0,5.491H33.13v2.745H0Z" transform="translate(0 -39.794)" fill="#d80027"/>
    <path id="Path_26091" data-name="Path 26091" d="M0,.331H17.216v12.36H0Z" fill="#2e52b2"/>
    <path id="Path_26092" data-name="Path 26092" d="M30.965,32.928l-.277.853h-.9l.726.527-.277.853.726-.527.725.527-.277-.853.726-.527h-.9Zm.277,3.931-.277-.853-.277.853h-.9l.726.527-.277.853.726-.527.725.527-.277-.853.726-.527Zm-3.79,0-.277-.853-.277.853H26l.726.527-.277.853.726-.527.725.527-.277-.853.726-.527Zm-.277-3.931-.277.853H26l.726.527-.277.853.726-.527.725.527-.277-.853.726-.527h-.9Zm3.79-3.078-.277.853h-.9l.726.527-.277.853.726-.527.725.527-.277-.853.726-.527h-.9Zm-3.79,0L26.9,30.7H26l.726.527-.277.853.726-.527.725.527-.277-.853.726-.527h-.9Zm7.581,3.078-.277.853h-.9l.726.527-.277.853.726-.527.725.527-.277-.853.726-.527h-.9Zm.277,3.931-.277-.853-.277.853h-.9l.726.527-.277.853.726-.527.725.527-.277-.853.726-.527Zm3.79,0-.277-.853-.277.853h-.9l.726.527-.277.853.726-.527.725.527-.277-.853.726-.527Zm-.277-3.931-.277.853h-.9l.726.527-.277.853.726-.527.725.527-.277-.853.726-.527h-.9Zm-3.79-3.078-.277.853h-.9l.726.527-.277.853.726-.527.725.527L35.2,31.23l.726-.527h-.9Zm3.79,0-.277.853h-.9l.726.527-.277.853.726-.527.725.527-.277-.853.726-.527h-.9Z" transform="translate(-24.252 -27.534)" fill="#f0f0f0"/>
  </g>
</svg>
