<svg xmlns="http://www.w3.org/2000/svg" width="23.471" height="19.776" viewBox="0 0 23.471 19.776">
  <g id="eye" transform="translate(-41.269 -408.623)">
    <path id="Path_79" data-name="Path 79" d="M52.326,379.373a3.953,3.953,0,1,1-3.953-3.953A3.949,3.949,0,0,1,52.326,379.373Z" transform="translate(4.631 39.143)" fill="none" stroke="#99a9be" stroke-linecap="round" stroke-linejoin="round" stroke-width="1.5"/>
    <path id="Path_80" data-name="Path 80" d="M49.02,389c3.9,0,7.531-2.3,10.06-6.272a5.881,5.881,0,0,0,0-5.731c-2.529-3.975-6.162-6.272-10.06-6.272s-7.531,2.3-10.06,6.272a5.881,5.881,0,0,0,0,5.731C41.489,386.7,45.122,389,49.02,389Z" transform="translate(3.984 38.653)" fill="none" stroke="#99a9be" stroke-linecap="round" stroke-linejoin="round" stroke-width="1.5"/>
  </g>
</svg>
