<svg xmlns="http://www.w3.org/2000/svg" xmlns:xlink="http://www.w3.org/1999/xlink" width="78.135" height="257.626" viewBox="0 0 78.135 257.626">
  <defs>
    <clipPath id="clip-path">
      <rect id="Rectangle_33487" data-name="Rectangle 33487" width="257.626" height="78.135" transform="translate(-20)" fill="#39a6e7"/>
    </clipPath>
  </defs>
  <g id="Group_63134" data-name="Group 63134" transform="translate(78.135 20) rotate(90)" opacity="0.298" clip-path="url(#clip-path)">
    <g id="Group_63133" data-name="Group 63133" transform="translate(-21.412 3.123)" opacity="0.17">
      <line id="Line_495" data-name="Line 495" y1="0.015" x2="0.009" transform="translate(149.729 131.21)" fill="#f08406"/>
      <line id="Line_496" data-name="Line 496" y1="0.015" x2="0.009" transform="translate(115.114 155.702)" fill="#f08406"/>
      <g id="Group_63090" data-name="Group 63090" transform="translate(27.152 145.398)">
        <path id="Path_25793" data-name="Path 25793" d="M561.451,2692.821a5.549,5.549,0,0,1-4.076-1.82,6.459,6.459,0,0,1-1.688-4.4V2661.81a6.289,6.289,0,0,1,2.884-5.378,1.243,1.243,0,0,1,.157-.095,5.3,5.3,0,0,1,2.834-.825,5.349,5.349,0,0,1,3.1,1l2.151,1.521,20.461,14.45c-.139,12.227-7.652,9.038-7.652,9.038l-4.6-2.88-7.605-5.373-.2-.145V2686.6A6,6,0,0,1,561.451,2692.821Z" transform="translate(-555.687 -2655.512)" fill="#39a6e7"/>
        <path id="Path_25794" data-name="Path 25794" d="M603.4,2691.846a5.463,5.463,0,0,1-4.016-1.795c-.329-.356-8.013-6.088-8.013-6.088.084-.008.167-.017.249-.026a7.311,7.311,0,0,0,6.1-7.462v-14.73c0-3.389,2.573-6.253,5.718-6.232a5.459,5.459,0,0,1,3.975,1.79,6.342,6.342,0,0,1,1.665,4.328v24.092A5.912,5.912,0,0,1,603.4,2691.846Z" transform="translate(-563.626 -2655.512)" fill="#39a6e7"/>
      </g>
      <g id="Group_63091" data-name="Group 63091" transform="translate(41.023 173.594)">
        <path id="Path_25795" data-name="Path 25795" d="M579.292,2726.469a5.545,5.545,0,0,1-4.076-1.82,6.459,6.459,0,0,1-1.688-4.4v-24.792a6.287,6.287,0,0,1,2.884-5.378,1.28,1.28,0,0,1,.158-.1,5.288,5.288,0,0,1,5.936.181l2.151,1.519,20.461,14.45c-.139,12.227-7.652,9.037-7.652,9.037l-4.6-2.879-7.605-5.373-.2-.145v13.476A6,6,0,0,1,579.292,2726.469Z" transform="translate(-573.528 -2689.161)" fill="#39a6e7"/>
        <path id="Path_25796" data-name="Path 25796" d="M621.24,2725.495a5.468,5.468,0,0,1-4.017-1.8c-.329-.354-8.013-6.088-8.013-6.088.084-.007.167-.017.249-.026a7.31,7.31,0,0,0,6.1-7.461v-14.731c0-3.391,2.573-6.253,5.718-6.232a5.46,5.46,0,0,1,3.974,1.79,6.344,6.344,0,0,1,1.665,4.328v24.093A5.912,5.912,0,0,1,621.24,2725.495Z" transform="translate(-581.468 -2689.16)" fill="#39a6e7"/>
      </g>
      <g id="Group_63092" data-name="Group 63092" transform="translate(77.619 129.656)">
        <path id="Path_25797" data-name="Path 25797" d="M626.361,2674.036a5.551,5.551,0,0,1-4.076-1.82,6.458,6.458,0,0,1-1.688-4.4v-24.792a6.291,6.291,0,0,1,2.885-5.378,1.459,1.459,0,0,1,.158-.1,5.283,5.283,0,0,1,5.936.18l2.152,1.52,20.461,14.45c-.139,12.225-7.652,9.038-7.652,9.038l-4.6-2.88-7.605-5.373-.2-.144v13.475A6,6,0,0,1,626.361,2674.036Z" transform="translate(-620.597 -2636.727)" fill="#39a6e7"/>
        <path id="Path_25798" data-name="Path 25798" d="M668.309,2673.06a5.464,5.464,0,0,1-4.016-1.794c-.33-.355-8.014-6.088-8.014-6.088.083-.009.166-.016.249-.027a7.311,7.311,0,0,0,6.1-7.463v-14.73c0-3.39,2.573-6.253,5.719-6.232a5.465,5.465,0,0,1,3.974,1.789,6.347,6.347,0,0,1,1.665,4.329v24.092A5.91,5.91,0,0,1,668.309,2673.06Z" transform="translate(-628.537 -2636.726)" fill="#39a6e7"/>
      </g>
      <g id="Group_63093" data-name="Group 63093" transform="translate(91.49 157.852)">
        <path id="Path_25799" data-name="Path 25799" d="M644.2,2707.682a5.547,5.547,0,0,1-4.076-1.82,6.455,6.455,0,0,1-1.689-4.4v-24.793a6.293,6.293,0,0,1,2.884-5.378,1.339,1.339,0,0,1,.158-.094,5.285,5.285,0,0,1,5.936.179l2.152,1.52,20.461,14.451c-.139,12.226-7.652,9.036-7.652,9.036l-4.6-2.879-7.606-5.374-.2-.145v13.476A6,6,0,0,1,644.2,2707.682Z" transform="translate(-638.438 -2670.374)" fill="#39a6e7"/>
        <path id="Path_25800" data-name="Path 25800" d="M686.151,2706.708a5.462,5.462,0,0,1-4.017-1.794c-.33-.355-8.014-6.089-8.014-6.089.084-.007.167-.017.249-.027a7.309,7.309,0,0,0,6.1-7.46v-14.732c0-3.389,2.573-6.252,5.718-6.231a5.458,5.458,0,0,1,3.975,1.789,6.347,6.347,0,0,1,1.665,4.328v24.093A5.91,5.91,0,0,1,686.151,2706.708Z" transform="translate(-646.378 -2670.375)" fill="#39a6e7"/>
      </g>
      <g id="Group_63094" data-name="Group 63094" transform="translate(0 88.781)">
        <path id="Path_25801" data-name="Path 25801" d="M526.529,2625.258a5.549,5.549,0,0,1-4.076-1.819,6.46,6.46,0,0,1-1.688-4.4v-24.792a6.291,6.291,0,0,1,2.884-5.379,1.6,1.6,0,0,1,.158-.095,5.287,5.287,0,0,1,5.936.181l2.152,1.52,20.461,14.45c-.139,12.226-7.652,9.038-7.652,9.038l-4.6-2.88-7.605-5.372-.2-.146v13.476A6,6,0,0,1,526.529,2625.258Z" transform="translate(-520.765 -2587.95)" fill="#39a6e7"/>
        <path id="Path_25802" data-name="Path 25802" d="M568.477,2624.282a5.463,5.463,0,0,1-4.016-1.793c-.33-.355-8.014-6.088-8.014-6.088l.25-.027a7.312,7.312,0,0,0,6.1-7.462v-14.731c0-3.39,2.574-6.254,5.718-6.232a5.464,5.464,0,0,1,3.975,1.789,6.353,6.353,0,0,1,1.665,4.329v24.092A5.911,5.911,0,0,1,568.477,2624.282Z" transform="translate(-528.705 -2587.949)" fill="#39a6e7"/>
      </g>
      <g id="Group_63095" data-name="Group 63095" transform="translate(13.871 116.977)">
        <path id="Path_25803" data-name="Path 25803" d="M544.371,2658.906a5.548,5.548,0,0,1-4.076-1.82,6.456,6.456,0,0,1-1.689-4.4v-24.794a6.289,6.289,0,0,1,2.884-5.378,1.259,1.259,0,0,1,.158-.095,5.291,5.291,0,0,1,2.834-.825,5.346,5.346,0,0,1,3.1,1l2.152,1.521,20.461,14.45c-.139,12.227-7.652,9.037-7.652,9.037l-4.6-2.879-7.606-5.374-.2-.146v13.478A6,6,0,0,1,544.371,2658.906Z" transform="translate(-538.606 -2621.597)" fill="#39a6e7"/>
        <path id="Path_25804" data-name="Path 25804" d="M586.318,2657.93a5.462,5.462,0,0,1-4.016-1.794c-.33-.355-8.014-6.089-8.014-6.089.084-.008.166-.016.249-.026a7.311,7.311,0,0,0,6.1-7.461v-14.731c0-3.39,2.573-6.253,5.718-6.231a5.46,5.46,0,0,1,3.975,1.789,6.351,6.351,0,0,1,1.665,4.329v24.094A5.911,5.911,0,0,1,586.318,2657.93Z" transform="translate(-546.546 -2621.596)" fill="#39a6e7"/>
      </g>
      <g id="Group_63096" data-name="Group 63096" transform="translate(50.468 73.039)">
        <path id="Path_25805" data-name="Path 25805" d="M591.44,2606.473a5.547,5.547,0,0,1-4.076-1.821,6.455,6.455,0,0,1-1.688-4.4v-24.791a6.286,6.286,0,0,1,2.884-5.378,1.2,1.2,0,0,1,.158-.1,5.288,5.288,0,0,1,5.936.181l2.151,1.519,20.461,14.451c-.139,12.227-7.652,9.037-7.652,9.037l-4.6-2.879-7.605-5.373-.2-.144v13.475A6,6,0,0,1,591.44,2606.473Z" transform="translate(-585.676 -2569.164)" fill="#39a6e7"/>
        <path id="Path_25806" data-name="Path 25806" d="M633.388,2605.5a5.464,5.464,0,0,1-4.017-1.793c-.329-.355-8.014-6.088-8.014-6.088.084-.008.167-.016.249-.027a7.309,7.309,0,0,0,6.1-7.46v-14.732c0-3.389,2.573-6.252,5.718-6.23a5.461,5.461,0,0,1,3.975,1.788,6.347,6.347,0,0,1,1.665,4.329v24.092A5.91,5.91,0,0,1,633.388,2605.5Z" transform="translate(-593.615 -2569.164)" fill="#39a6e7"/>
      </g>
      <g id="Group_63097" data-name="Group 63097" transform="translate(64.339 101.235)">
        <path id="Path_25807" data-name="Path 25807" d="M609.281,2640.12a5.549,5.549,0,0,1-4.076-1.819,6.461,6.461,0,0,1-1.688-4.4v-24.793a6.291,6.291,0,0,1,2.884-5.378,1.555,1.555,0,0,1,.158-.095,5.29,5.29,0,0,1,5.936.181l2.151,1.519,20.461,14.451c-.139,12.226-7.652,9.038-7.652,9.038l-4.6-2.879-7.605-5.374-.2-.145V2633.9A6,6,0,0,1,609.281,2640.12Z" transform="translate(-603.517 -2602.812)" fill="#39a6e7"/>
        <path id="Path_25808" data-name="Path 25808" d="M651.229,2639.145a5.467,5.467,0,0,1-4.017-1.794c-.329-.356-8.014-6.089-8.014-6.089.084-.008.167-.016.25-.026a7.311,7.311,0,0,0,6.1-7.462v-14.731c0-3.39,2.573-6.253,5.718-6.23a5.457,5.457,0,0,1,3.975,1.789,6.345,6.345,0,0,1,1.665,4.329v24.092A5.912,5.912,0,0,1,651.229,2639.145Z" transform="translate(-611.457 -2602.812)" fill="#39a6e7"/>
      </g>
      <line id="Line_497" data-name="Line 497" x1="0.014" y1="0.01" transform="translate(126.509 104.842)" fill="#f08406"/>
      <g id="Group_63098" data-name="Group 63098" transform="translate(114.421 88.781)">
        <path id="Path_25809" data-name="Path 25809" d="M673.7,2625.258a5.549,5.549,0,0,1-4.077-1.819,6.461,6.461,0,0,1-1.689-4.4v-24.792a6.292,6.292,0,0,1,2.885-5.379,1.573,1.573,0,0,1,.157-.095,5.286,5.286,0,0,1,5.936.181l2.152,1.52,20.461,14.45c-.139,12.226-7.652,9.038-7.652,9.038l-4.6-2.88-7.606-5.372-.2-.146v13.476A6,6,0,0,1,673.7,2625.258Z" transform="translate(-667.931 -2587.95)" fill="#39a6e7"/>
        <path id="Path_25810" data-name="Path 25810" d="M715.644,2624.282a5.465,5.465,0,0,1-4.016-1.793c-.329-.355-8.014-6.088-8.014-6.088q.126-.012.249-.027a7.312,7.312,0,0,0,6.1-7.462v-14.731c0-3.39,2.573-6.254,5.718-6.232a5.464,5.464,0,0,1,3.974,1.789,6.354,6.354,0,0,1,1.665,4.329v24.092A5.911,5.911,0,0,1,715.644,2624.282Z" transform="translate(-675.871 -2587.949)" fill="#39a6e7"/>
      </g>
      <g id="Group_63099" data-name="Group 63099" transform="translate(128.293 116.977)">
        <path id="Path_25811" data-name="Path 25811" d="M691.537,2658.906a5.548,5.548,0,0,1-4.077-1.82,6.46,6.46,0,0,1-1.688-4.4v-24.794a6.29,6.29,0,0,1,2.884-5.378,1.171,1.171,0,0,1,.158-.095,5.288,5.288,0,0,1,2.833-.825,5.348,5.348,0,0,1,3.1,1l2.152,1.521,20.461,14.45c-.139,12.227-7.652,9.037-7.652,9.037l-4.6-2.879-7.606-5.374-.2-.146v13.478A6,6,0,0,1,691.537,2658.906Z" transform="translate(-685.773 -2621.597)" fill="#39a6e7"/>
        <path id="Path_25812" data-name="Path 25812" d="M733.485,2657.93a5.466,5.466,0,0,1-4.016-1.794c-.329-.355-8.014-6.089-8.014-6.089.084-.008.167-.016.25-.026a7.311,7.311,0,0,0,6.1-7.461v-14.731c0-3.39,2.573-6.253,5.718-6.231a5.459,5.459,0,0,1,3.975,1.789,6.347,6.347,0,0,1,1.665,4.329v24.094A5.911,5.911,0,0,1,733.485,2657.93Z" transform="translate(-693.713 -2621.596)" fill="#39a6e7"/>
      </g>
      <g id="Group_63100" data-name="Group 63100" transform="translate(164.888 73.039)">
        <path id="Path_25813" data-name="Path 25813" d="M738.606,2606.473a5.546,5.546,0,0,1-4.076-1.821,6.454,6.454,0,0,1-1.688-4.4v-24.791a6.286,6.286,0,0,1,2.885-5.378,1.235,1.235,0,0,1,.158-.1,5.289,5.289,0,0,1,5.936.181l2.152,1.519,20.46,14.451c-.138,12.227-7.651,9.037-7.651,9.037l-4.6-2.879-7.605-5.373-.2-.144v13.475A6,6,0,0,1,738.606,2606.473Z" transform="translate(-732.842 -2569.164)" fill="#39a6e7"/>
        <path id="Path_25814" data-name="Path 25814" d="M780.554,2605.5a5.462,5.462,0,0,1-4.016-1.793c-.33-.355-8.014-6.088-8.014-6.088.084-.008.167-.016.25-.027a7.309,7.309,0,0,0,6.1-7.46v-14.732c0-3.389,2.574-6.252,5.718-6.23a5.461,5.461,0,0,1,3.975,1.788,6.35,6.35,0,0,1,1.665,4.329v24.092A5.91,5.91,0,0,1,780.554,2605.5Z" transform="translate(-740.781 -2569.164)" fill="#39a6e7"/>
      </g>
      <g id="Group_63101" data-name="Group 63101" transform="translate(178.76 101.235)">
        <path id="Path_25815" data-name="Path 25815" d="M756.448,2640.12a5.552,5.552,0,0,1-4.077-1.819,6.462,6.462,0,0,1-1.688-4.4v-24.793a6.291,6.291,0,0,1,2.885-5.378,1.64,1.64,0,0,1,.158-.095,5.29,5.29,0,0,1,5.936.181l2.152,1.519,20.461,14.451c-.139,12.226-7.652,9.038-7.652,9.038l-4.6-2.879-7.606-5.374-.2-.145V2633.9A6,6,0,0,1,756.448,2640.12Z" transform="translate(-750.683 -2602.812)" fill="#39a6e7"/>
        <path id="Path_25816" data-name="Path 25816" d="M798.4,2639.145a5.465,5.465,0,0,1-4.016-1.794c-.33-.356-8.014-6.089-8.014-6.089.084-.008.166-.016.249-.026a7.311,7.311,0,0,0,6.1-7.462v-14.731c0-3.39,2.573-6.253,5.718-6.23a5.457,5.457,0,0,1,3.975,1.789,6.345,6.345,0,0,1,1.665,4.329v24.092A5.911,5.911,0,0,1,798.4,2639.145Z" transform="translate(-758.623 -2602.812)" fill="#39a6e7"/>
      </g>
      <line id="Line_498" data-name="Line 498" y1="0.015" x2="0.009" transform="translate(204.735 244.899)" fill="#f08406"/>
      <line id="Line_499" data-name="Line 499" y1="0.015" x2="0.009" transform="translate(170.12 269.391)" fill="#f08406"/>
      <g id="Group_63102" data-name="Group 63102" transform="translate(82.157 259.087)">
        <path id="Path_25817" data-name="Path 25817" d="M632.2,2828.491a5.549,5.549,0,0,1-4.076-1.819,6.461,6.461,0,0,1-1.689-4.4V2797.48a6.291,6.291,0,0,1,2.884-5.378,1.531,1.531,0,0,1,.158-.1,5.287,5.287,0,0,1,5.936.181l2.152,1.519,20.461,14.451c-.139,12.226-7.652,9.037-7.652,9.037l-4.6-2.879-7.606-5.373-.2-.145v13.476A6,6,0,0,1,632.2,2828.491Z" transform="translate(-626.434 -2791.182)" fill="#39a6e7"/>
        <path id="Path_25818" data-name="Path 25818" d="M674.147,2827.516a5.461,5.461,0,0,1-4.016-1.8c-.33-.354-8.014-6.088-8.014-6.088.084-.007.167-.017.249-.027a7.311,7.311,0,0,0,6.1-7.461v-14.73c0-3.39,2.573-6.254,5.718-6.233a5.462,5.462,0,0,1,3.974,1.79,6.345,6.345,0,0,1,1.665,4.327v24.093A5.911,5.911,0,0,1,674.147,2827.516Z" transform="translate(-634.374 -2791.182)" fill="#39a6e7"/>
      </g>
      <g id="Group_63103" data-name="Group 63103" transform="translate(96.029 287.283)">
        <path id="Path_25819" data-name="Path 25819" d="M650.04,2862.138a5.548,5.548,0,0,1-4.076-1.819,6.46,6.46,0,0,1-1.688-4.4v-24.792a6.29,6.29,0,0,1,2.884-5.378,1.582,1.582,0,0,1,.157-.095,5.288,5.288,0,0,1,5.937.181l2.151,1.518,20.461,14.451c-.139,12.226-7.652,9.038-7.652,9.038l-4.6-2.879-7.605-5.374-.2-.144v13.475A6,6,0,0,1,650.04,2862.138Z" transform="translate(-644.276 -2824.831)" fill="#39a6e7"/>
        <path id="Path_25820" data-name="Path 25820" d="M691.988,2861.163a5.466,5.466,0,0,1-4.016-1.794c-.329-.355-8.014-6.088-8.014-6.088.084-.008.167-.017.249-.027a7.309,7.309,0,0,0,6.1-7.461v-14.731c0-3.389,2.573-6.253,5.718-6.231a5.461,5.461,0,0,1,3.975,1.789,6.347,6.347,0,0,1,1.665,4.328v24.093A5.911,5.911,0,0,1,691.988,2861.163Z" transform="translate(-652.215 -2824.83)" fill="#39a6e7"/>
      </g>
      <g id="Group_63104" data-name="Group 63104" transform="translate(132.625 243.345)">
        <path id="Path_25821" data-name="Path 25821" d="M697.109,2809.706a5.548,5.548,0,0,1-4.076-1.819,6.461,6.461,0,0,1-1.688-4.4v-24.793a6.291,6.291,0,0,1,2.885-5.378,1.228,1.228,0,0,1,.158-.094,5.287,5.287,0,0,1,5.936.179l2.151,1.52,20.461,14.45c-.139,12.226-7.652,9.037-7.652,9.037l-4.6-2.879-7.605-5.373-.2-.146v13.476A6,6,0,0,1,697.109,2809.706Z" transform="translate(-691.345 -2772.397)" fill="#39a6e7"/>
        <path id="Path_25822" data-name="Path 25822" d="M739.057,2808.73a5.466,5.466,0,0,1-4.017-1.795c-.329-.355-8.014-6.088-8.014-6.088.084-.008.167-.017.25-.028a7.309,7.309,0,0,0,6.1-7.461v-14.731c0-3.39,2.573-6.253,5.718-6.231a5.459,5.459,0,0,1,3.975,1.79,6.345,6.345,0,0,1,1.664,4.328v24.092A5.911,5.911,0,0,1,739.057,2808.73Z" transform="translate(-699.284 -2772.396)" fill="#39a6e7"/>
      </g>
      <g id="Group_63105" data-name="Group 63105" transform="translate(146.496 271.541)">
        <path id="Path_25823" data-name="Path 25823" d="M714.95,2843.353a5.544,5.544,0,0,1-4.077-1.82,6.457,6.457,0,0,1-1.688-4.4v-24.792a6.29,6.29,0,0,1,2.885-5.378,1.238,1.238,0,0,1,.157-.095,5.293,5.293,0,0,1,2.834-.825,5.351,5.351,0,0,1,3.1,1l2.152,1.52,20.461,14.45c-.139,12.227-7.652,9.036-7.652,9.036l-4.6-2.878-7.605-5.373-.2-.145v13.476A6,6,0,0,1,714.95,2843.353Z" transform="translate(-709.186 -2806.045)" fill="#39a6e7"/>
        <path id="Path_25824" data-name="Path 25824" d="M756.9,2842.378a5.462,5.462,0,0,1-4.016-1.794c-.33-.354-8.014-6.088-8.014-6.088.084-.008.166-.018.249-.026a7.312,7.312,0,0,0,6.1-7.461v-14.731c0-3.39,2.573-6.253,5.719-6.232a5.464,5.464,0,0,1,3.974,1.791,6.345,6.345,0,0,1,1.665,4.328v24.092A5.91,5.91,0,0,1,756.9,2842.378Z" transform="translate(-717.126 -2806.044)" fill="#39a6e7"/>
      </g>
      <g id="Group_63106" data-name="Group 63106" transform="translate(55.006 202.47)">
        <path id="Path_25825" data-name="Path 25825" d="M597.277,2760.928a5.551,5.551,0,0,1-4.076-1.82,6.459,6.459,0,0,1-1.688-4.4v-24.794a6.29,6.29,0,0,1,2.885-5.378,1.2,1.2,0,0,1,.158-.095,5.29,5.29,0,0,1,5.936.179l2.151,1.52,20.461,14.45c-.139,12.226-7.652,9.036-7.652,9.036l-4.6-2.878-7.605-5.373-.2-.145v13.476A6,6,0,0,1,597.277,2760.928Z" transform="translate(-591.513 -2723.619)" fill="#39a6e7"/>
        <path id="Path_25826" data-name="Path 25826" d="M639.225,2759.953a5.465,5.465,0,0,1-4.017-1.795c-.329-.356-8.014-6.089-8.014-6.089.084-.007.167-.016.25-.027a7.31,7.31,0,0,0,6.1-7.461V2729.85c0-3.389,2.573-6.253,5.718-6.231a5.463,5.463,0,0,1,3.975,1.788,6.348,6.348,0,0,1,1.664,4.328v24.092A5.912,5.912,0,0,1,639.225,2759.953Z" transform="translate(-599.453 -2723.619)" fill="#39a6e7"/>
      </g>
      <g id="Group_63107" data-name="Group 63107" transform="translate(68.877 230.666)">
        <path id="Path_25827" data-name="Path 25827" d="M615.118,2794.575a5.546,5.546,0,0,1-4.076-1.82,6.459,6.459,0,0,1-1.688-4.4v-24.791a6.287,6.287,0,0,1,2.884-5.377,1.3,1.3,0,0,1,.158-.1,5.288,5.288,0,0,1,5.936.18l2.152,1.519,20.461,14.45c-.139,12.227-7.652,9.038-7.652,9.038l-4.6-2.88-7.605-5.372-.2-.146v13.476A6,6,0,0,1,615.118,2794.575Z" transform="translate(-609.354 -2757.266)" fill="#39a6e7"/>
        <path id="Path_25828" data-name="Path 25828" d="M657.066,2793.6a5.466,5.466,0,0,1-4.016-1.794c-.33-.355-8.014-6.088-8.014-6.088.084-.008.167-.017.25-.027a7.31,7.31,0,0,0,6.1-7.461V2763.5c0-3.39,2.574-6.252,5.719-6.232a5.463,5.463,0,0,1,3.975,1.79,6.348,6.348,0,0,1,1.665,4.328v24.093A5.91,5.91,0,0,1,657.066,2793.6Z" transform="translate(-617.293 -2757.266)" fill="#39a6e7"/>
      </g>
      <g id="Group_63108" data-name="Group 63108" transform="translate(105.473 186.728)">
        <path id="Path_25829" data-name="Path 25829" d="M662.188,2742.141a5.546,5.546,0,0,1-4.076-1.819,6.458,6.458,0,0,1-1.689-4.4v-24.793a6.294,6.294,0,0,1,2.885-5.379,1.679,1.679,0,0,1,.157-.094,5.289,5.289,0,0,1,5.936.18l2.152,1.519,20.461,14.451c-.139,12.226-7.652,9.037-7.652,9.037l-4.6-2.879-7.606-5.373-.2-.146v13.476A6,6,0,0,1,662.188,2742.141Z" transform="translate(-656.423 -2704.834)" fill="#39a6e7"/>
        <path id="Path_25830" data-name="Path 25830" d="M704.136,2741.167a5.465,5.465,0,0,1-4.017-1.795c-.33-.355-8.014-6.088-8.014-6.088.084-.008.167-.017.249-.027a7.311,7.311,0,0,0,6.1-7.461v-14.732c0-3.39,2.573-6.254,5.718-6.231a5.46,5.46,0,0,1,3.975,1.788,6.352,6.352,0,0,1,1.665,4.329v24.092A5.911,5.911,0,0,1,704.136,2741.167Z" transform="translate(-664.363 -2704.833)" fill="#39a6e7"/>
      </g>
      <g id="Group_63109" data-name="Group 63109" transform="translate(119.345 214.924)">
        <path id="Path_25831" data-name="Path 25831" d="M680.029,2775.79a5.55,5.55,0,0,1-4.077-1.819,6.462,6.462,0,0,1-1.688-4.4v-24.792a6.29,6.29,0,0,1,2.885-5.379,1.159,1.159,0,0,1,.158-.094,5.285,5.285,0,0,1,2.833-.826,5.347,5.347,0,0,1,3.1,1l2.151,1.52,20.461,14.451c-.139,12.226-7.652,9.037-7.652,9.037l-4.6-2.879L686,2756.24l-.2-.146v13.477A6,6,0,0,1,680.029,2775.79Z" transform="translate(-674.265 -2738.48)" fill="#39a6e7"/>
        <path id="Path_25832" data-name="Path 25832" d="M721.977,2774.815a5.463,5.463,0,0,1-4.016-1.795c-.329-.355-8.014-6.088-8.014-6.088.084-.008.167-.017.249-.027a7.31,7.31,0,0,0,6.1-7.462v-14.73c0-3.39,2.573-6.253,5.718-6.232a5.463,5.463,0,0,1,3.975,1.789,6.346,6.346,0,0,1,1.665,4.329v24.093A5.911,5.911,0,0,1,721.977,2774.815Z" transform="translate(-682.204 -2738.48)" fill="#39a6e7"/>
      </g>
      <g id="Group_63110" data-name="Group 63110" transform="translate(169.427 202.47)">
        <path id="Path_25833" data-name="Path 25833" d="M744.444,2760.928a5.554,5.554,0,0,1-4.077-1.82,6.459,6.459,0,0,1-1.688-4.4v-24.794a6.29,6.29,0,0,1,2.884-5.378,1.267,1.267,0,0,1,.158-.095,5.29,5.29,0,0,1,5.936.179l2.152,1.52,20.461,14.45c-.139,12.226-7.652,9.036-7.652,9.036l-4.6-2.878-7.606-5.373-.2-.145v13.476A6,6,0,0,1,744.444,2760.928Z" transform="translate(-738.679 -2723.619)" fill="#39a6e7"/>
        <path id="Path_25834" data-name="Path 25834" d="M786.391,2759.953a5.462,5.462,0,0,1-4.016-1.795c-.33-.356-8.013-6.089-8.013-6.089.084-.007.166-.016.249-.027a7.31,7.31,0,0,0,6.1-7.461V2729.85c0-3.389,2.573-6.253,5.719-6.231a5.463,5.463,0,0,1,3.975,1.788,6.348,6.348,0,0,1,1.665,4.328v24.092A5.912,5.912,0,0,1,786.391,2759.953Z" transform="translate(-746.619 -2723.619)" fill="#39a6e7"/>
      </g>
      <g id="Group_63111" data-name="Group 63111" transform="translate(183.298 230.666)">
        <path id="Path_25835" data-name="Path 25835" d="M762.285,2794.575a5.545,5.545,0,0,1-4.076-1.82,6.46,6.46,0,0,1-1.689-4.4v-24.791a6.288,6.288,0,0,1,2.885-5.377,1.323,1.323,0,0,1,.157-.1,5.288,5.288,0,0,1,5.936.18l2.152,1.519,20.461,14.45c-.139,12.227-7.652,9.038-7.652,9.038l-4.6-2.88-7.606-5.372-.2-.146v13.476A6,6,0,0,1,762.285,2794.575Z" transform="translate(-756.52 -2757.266)" fill="#39a6e7"/>
        <path id="Path_25836" data-name="Path 25836" d="M804.233,2793.6a5.468,5.468,0,0,1-4.016-1.794c-.329-.355-8.013-6.088-8.013-6.088.084-.008.167-.017.249-.027a7.31,7.31,0,0,0,6.1-7.461V2763.5c0-3.39,2.573-6.252,5.718-6.232a5.463,5.463,0,0,1,3.975,1.79,6.348,6.348,0,0,1,1.665,4.328v24.093A5.91,5.91,0,0,1,804.233,2793.6Z" transform="translate(-764.46 -2757.266)" fill="#39a6e7"/>
      </g>
      <g id="Group_63112" data-name="Group 63112" transform="translate(219.895 186.728)">
        <path id="Path_25837" data-name="Path 25837" d="M809.354,2742.141a5.548,5.548,0,0,1-4.077-1.819,6.458,6.458,0,0,1-1.688-4.4v-24.793a6.292,6.292,0,0,1,2.885-5.379,1.674,1.674,0,0,1,.157-.094,5.289,5.289,0,0,1,5.936.18l2.151,1.519,20.461,14.451c-.139,12.226-7.652,9.037-7.652,9.037l-4.6-2.879-7.606-5.373-.2-.146v13.476A6,6,0,0,1,809.354,2742.141Z" transform="translate(-803.59 -2704.834)" fill="#39a6e7"/>
        <path id="Path_25838" data-name="Path 25838" d="M851.3,2741.167a5.466,5.466,0,0,1-4.017-1.795c-.329-.355-8.014-6.088-8.014-6.088.084-.008.167-.017.25-.027a7.31,7.31,0,0,0,6.1-7.461v-14.732c0-3.39,2.573-6.254,5.718-6.231a5.458,5.458,0,0,1,3.975,1.788,6.349,6.349,0,0,1,1.665,4.329v24.092A5.912,5.912,0,0,1,851.3,2741.167Z" transform="translate(-811.529 -2704.833)" fill="#39a6e7"/>
      </g>
      <g id="Group_63113" data-name="Group 63113" transform="translate(233.766 214.924)">
        <path id="Path_25839" data-name="Path 25839" d="M827.2,2775.79a5.55,5.55,0,0,1-4.076-1.819,6.462,6.462,0,0,1-1.688-4.4v-24.792a6.29,6.29,0,0,1,2.884-5.379,1.21,1.21,0,0,1,.158-.094,5.285,5.285,0,0,1,2.834-.826,5.346,5.346,0,0,1,3.1,1l2.152,1.52,20.46,14.451c-.138,12.226-7.651,9.037-7.651,9.037l-4.6-2.879-7.605-5.373-.2-.146v13.477A6,6,0,0,1,827.2,2775.79Z" transform="translate(-821.431 -2738.48)" fill="#39a6e7"/>
        <path id="Path_25840" data-name="Path 25840" d="M869.143,2774.815a5.462,5.462,0,0,1-4.016-1.795c-.33-.355-8.014-6.088-8.014-6.088.084-.008.167-.017.25-.027a7.31,7.31,0,0,0,6.1-7.462v-14.73c0-3.39,2.574-6.253,5.718-6.232a5.463,5.463,0,0,1,3.975,1.789,6.35,6.35,0,0,1,1.665,4.329v24.093A5.911,5.911,0,0,1,869.143,2774.815Z" transform="translate(-829.37 -2738.48)" fill="#39a6e7"/>
      </g>
      <line id="Line_500" data-name="Line 500" y1="0.015" x2="0.009" transform="translate(176.894 188.054)" fill="#f08406"/>
      <g id="Group_63114" data-name="Group 63114" transform="translate(141.586 145.625)">
        <path id="Path_25841" data-name="Path 25841" d="M708.635,2693.093a5.546,5.546,0,0,1-4.076-1.819,6.461,6.461,0,0,1-1.688-4.4v-24.793a6.291,6.291,0,0,1,2.884-5.378,1.443,1.443,0,0,1,.157-.1,5.291,5.291,0,0,1,5.937.181l2.151,1.52,20.461,14.45c-.139,12.226-7.652,9.037-7.652,9.037l-4.6-2.879-7.605-5.373-.2-.146v13.476A6,6,0,0,1,708.635,2693.093Z" transform="translate(-702.871 -2655.785)" fill="#39a6e7"/>
        <path id="Path_25842" data-name="Path 25842" d="M750.583,2692.118a5.466,5.466,0,0,1-4.017-1.795c-.329-.355-8.013-6.089-8.013-6.089.084-.008.167-.017.248-.027a7.31,7.31,0,0,0,6.1-7.462v-14.731c0-3.39,2.573-6.253,5.718-6.231a5.46,5.46,0,0,1,3.975,1.789,6.348,6.348,0,0,1,1.665,4.33v24.091A5.912,5.912,0,0,1,750.583,2692.118Z" transform="translate(-710.81 -2655.783)" fill="#39a6e7"/>
      </g>
      <g id="Group_63115" data-name="Group 63115" transform="translate(155.457 173.821)">
        <path id="Path_25843" data-name="Path 25843" d="M726.476,2726.741a5.547,5.547,0,0,1-4.077-1.819,6.46,6.46,0,0,1-1.688-4.4v-24.792a6.288,6.288,0,0,1,2.884-5.378,1.237,1.237,0,0,1,.158-.1,5.289,5.289,0,0,1,2.833-.825,5.343,5.343,0,0,1,3.1,1l2.151,1.519,20.461,14.452c-.139,12.227-7.652,9.037-7.652,9.037l-4.6-2.879-7.605-5.374-.2-.145v13.475A6,6,0,0,1,726.476,2726.741Z" transform="translate(-720.712 -2689.433)" fill="#39a6e7"/>
        <path id="Path_25844" data-name="Path 25844" d="M768.424,2725.765a5.468,5.468,0,0,1-4.016-1.794c-.329-.354-8.014-6.088-8.014-6.088.084-.009.167-.017.25-.027a7.311,7.311,0,0,0,6.1-7.462v-14.731c0-3.389,2.573-6.253,5.718-6.233a5.462,5.462,0,0,1,3.974,1.792,6.341,6.341,0,0,1,1.666,4.327v24.093A5.911,5.911,0,0,1,768.424,2725.765Z" transform="translate(-728.651 -2689.431)" fill="#39a6e7"/>
      </g>
      <g id="Group_63116" data-name="Group 63116" transform="translate(192.053 129.883)">
        <path id="Path_25845" data-name="Path 25845" d="M773.545,2674.307a5.55,5.55,0,0,1-4.076-1.82,6.456,6.456,0,0,1-1.688-4.4V2643.3a6.29,6.29,0,0,1,2.885-5.378,1.319,1.319,0,0,1,.157-.1,5.285,5.285,0,0,1,5.936.18l2.152,1.519,20.461,14.45c-.139,12.227-7.652,9.038-7.652,9.038l-4.6-2.879-7.606-5.374-.2-.144v13.475A6,6,0,0,1,773.545,2674.307Z" transform="translate(-767.781 -2636.999)" fill="#39a6e7"/>
        <path id="Path_25846" data-name="Path 25846" d="M815.493,2673.331a5.464,5.464,0,0,1-4.016-1.793c-.33-.356-8.014-6.089-8.014-6.089.083-.008.166-.016.249-.026a7.311,7.311,0,0,0,6.1-7.461v-14.732c0-3.39,2.574-6.254,5.719-6.232a5.46,5.46,0,0,1,3.974,1.79,6.349,6.349,0,0,1,1.665,4.329v24.092A5.91,5.91,0,0,1,815.493,2673.331Z" transform="translate(-775.721 -2636.997)" fill="#39a6e7"/>
      </g>
      <line id="Line_501" data-name="Line 501" y1="0.015" x2="0.009" transform="translate(171.141 58.171)" fill="#f08406"/>
      <g id="Group_63117" data-name="Group 63117" transform="translate(99.031 59.451)">
        <path id="Path_25847" data-name="Path 25847" d="M653.9,2590.257a5.546,5.546,0,0,1-4.077-1.82,6.462,6.462,0,0,1-1.688-4.4v-24.792a6.289,6.289,0,0,1,2.884-5.378,1.288,1.288,0,0,1,.158-.1,5.289,5.289,0,0,1,5.936.18l2.151,1.519,20.461,14.452c-.139,12.226-7.652,9.037-7.652,9.037l-4.6-2.879-7.605-5.374-.2-.145v13.476A6,6,0,0,1,653.9,2590.257Z" transform="translate(-648.137 -2552.949)" fill="#39a6e7"/>
        <path id="Path_25848" data-name="Path 25848" d="M695.849,2589.282a5.466,5.466,0,0,1-4.017-1.795c-.329-.354-8.014-6.088-8.014-6.088.084-.008.167-.017.249-.027a7.31,7.31,0,0,0,6.1-7.461v-14.731c0-3.391,2.573-6.253,5.718-6.232a5.464,5.464,0,0,1,3.975,1.789,6.35,6.35,0,0,1,1.665,4.328v24.093A5.911,5.911,0,0,1,695.849,2589.282Z" transform="translate(-656.077 -2552.948)" fill="#39a6e7"/>
      </g>
      <g id="Group_63118" data-name="Group 63118" transform="translate(21.412 15.743)">
        <path id="Path_25849" data-name="Path 25849" d="M554.069,2538.1a5.549,5.549,0,0,1-4.076-1.818,6.459,6.459,0,0,1-1.688-4.4v-24.792a6.29,6.29,0,0,1,2.885-5.378,1.321,1.321,0,0,1,.158-.095,5.288,5.288,0,0,1,5.936.18l2.151,1.52,20.461,14.449c-.139,12.227-7.652,9.038-7.652,9.038l-4.6-2.879-7.606-5.373-.2-.146v13.476A6,6,0,0,1,554.069,2538.1Z" transform="translate(-548.305 -2500.79)" fill="#39a6e7"/>
        <path id="Path_25850" data-name="Path 25850" d="M596.017,2537.123a5.462,5.462,0,0,1-4.016-1.795c-.329-.355-8.014-6.089-8.014-6.089.084-.008.167-.016.249-.027a7.309,7.309,0,0,0,6.1-7.461v-14.731c0-3.39,2.573-6.253,5.718-6.231a5.461,5.461,0,0,1,3.976,1.789,6.345,6.345,0,0,1,1.664,4.328V2531A5.912,5.912,0,0,1,596.017,2537.123Z" transform="translate(-556.244 -2500.79)" fill="#39a6e7"/>
      </g>
      <g id="Group_63119" data-name="Group 63119" transform="translate(35.283 43.938)">
        <path id="Path_25851" data-name="Path 25851" d="M571.91,2571.745a5.545,5.545,0,0,1-4.076-1.82,6.458,6.458,0,0,1-1.688-4.4v-24.793a6.29,6.29,0,0,1,2.884-5.378,1.392,1.392,0,0,1,.158-.1,5.291,5.291,0,0,1,5.936.181l2.152,1.519,20.461,14.451c-.139,12.227-7.652,9.037-7.652,9.037l-4.6-2.879-7.605-5.374-.2-.145v13.476A6,6,0,0,1,571.91,2571.745Z" transform="translate(-566.146 -2534.437)" fill="#39a6e7"/>
        <path id="Path_25852" data-name="Path 25852" d="M613.858,2570.77a5.463,5.463,0,0,1-4.016-1.795c-.33-.354-8.014-6.089-8.014-6.089.084-.007.167-.016.25-.026a7.31,7.31,0,0,0,6.1-7.461v-14.731c0-3.391,2.573-6.253,5.718-6.232a5.463,5.463,0,0,1,3.975,1.79,6.348,6.348,0,0,1,1.665,4.328v24.093A5.911,5.911,0,0,1,613.858,2570.77Z" transform="translate(-574.086 -2534.436)" fill="#39a6e7"/>
      </g>
      <g id="Group_63120" data-name="Group 63120" transform="translate(71.879 2.834)">
        <path id="Path_25853" data-name="Path 25853" d="M618.98,2522.693a5.547,5.547,0,0,1-4.076-1.819,6.459,6.459,0,0,1-1.689-4.4v-24.792a6.29,6.29,0,0,1,2.885-5.378,1.148,1.148,0,0,1,.157-.094,5.285,5.285,0,0,1,2.834-.826,5.342,5.342,0,0,1,3.1,1l2.152,1.52,20.461,14.451c-.139,12.226-7.652,9.036-7.652,9.036l-4.6-2.878-7.606-5.374-.2-.146v13.477A6,6,0,0,1,618.98,2522.693Z" transform="translate(-613.215 -2485.385)" fill="#39a6e7"/>
        <path id="Path_25854" data-name="Path 25854" d="M660.928,2521.718a5.458,5.458,0,0,1-4.016-1.8c-.33-.354-8.013-6.087-8.013-6.087.084-.008.167-.017.249-.027a7.311,7.311,0,0,0,6.1-7.462v-14.731c0-3.389,2.573-6.252,5.718-6.23a5.457,5.457,0,0,1,3.974,1.789,6.344,6.344,0,0,1,1.665,4.328V2515.6A5.911,5.911,0,0,1,660.928,2521.718Z" transform="translate(-621.155 -2485.384)" fill="#39a6e7"/>
      </g>
      <g id="Group_63121" data-name="Group 63121" transform="translate(85.751 31.03)">
        <path id="Path_25855" data-name="Path 25855" d="M636.821,2556.34a5.546,5.546,0,0,1-4.076-1.821,6.457,6.457,0,0,1-1.688-4.4V2525.33a6.289,6.289,0,0,1,2.884-5.378,1.453,1.453,0,0,1,.158-.1,5.286,5.286,0,0,1,5.936.18l2.151,1.52,20.461,14.451c-.139,12.226-7.652,9.036-7.652,9.036l-4.6-2.88-7.605-5.373-.2-.145v13.476A6,6,0,0,1,636.821,2556.34Z" transform="translate(-631.057 -2519.031)" fill="#39a6e7"/>
        <path id="Path_25856" data-name="Path 25856" d="M678.769,2555.367a5.469,5.469,0,0,1-4.017-1.793c-.329-.355-8.014-6.089-8.014-6.089.084-.008.167-.017.249-.027a7.31,7.31,0,0,0,6.1-7.461v-14.732c0-3.389,2.573-6.252,5.718-6.231a5.469,5.469,0,0,1,3.975,1.789,6.352,6.352,0,0,1,1.665,4.33v24.093A5.911,5.911,0,0,1,678.769,2555.367Z" transform="translate(-638.996 -2519.032)" fill="#39a6e7"/>
      </g>
      <line id="Line_502" data-name="Line 502" x1="0.014" y1="0.01" transform="translate(147.921 31.803)" fill="#f08406"/>
      <g id="Group_63122" data-name="Group 63122" transform="translate(135.833 15.743)">
        <path id="Path_25857" data-name="Path 25857" d="M701.236,2538.1a5.553,5.553,0,0,1-4.077-1.818,6.459,6.459,0,0,1-1.688-4.4v-24.792a6.29,6.29,0,0,1,2.884-5.378,1.383,1.383,0,0,1,.158-.095,5.288,5.288,0,0,1,5.936.18l2.152,1.52,20.462,14.449c-.139,12.227-7.652,9.038-7.652,9.038l-4.6-2.879-7.606-5.373-.2-.146v13.476A6,6,0,0,1,701.236,2538.1Z" transform="translate(-695.471 -2500.79)" fill="#39a6e7"/>
        <path id="Path_25858" data-name="Path 25858" d="M743.184,2537.123a5.46,5.46,0,0,1-4.016-1.795c-.33-.355-8.014-6.089-8.014-6.089.084-.008.166-.016.249-.027a7.309,7.309,0,0,0,6.1-7.461v-14.731c0-3.39,2.574-6.253,5.719-6.231a5.461,5.461,0,0,1,3.975,1.789,6.345,6.345,0,0,1,1.664,4.328V2531A5.912,5.912,0,0,1,743.184,2537.123Z" transform="translate(-703.411 -2500.79)" fill="#39a6e7"/>
      </g>
      <g id="Group_63123" data-name="Group 63123" transform="translate(149.704 43.938)">
        <path id="Path_25859" data-name="Path 25859" d="M719.077,2571.745a5.546,5.546,0,0,1-4.076-1.82,6.457,6.457,0,0,1-1.689-4.4v-24.793a6.291,6.291,0,0,1,2.885-5.378,1.407,1.407,0,0,1,.157-.1,5.291,5.291,0,0,1,5.936.181l2.152,1.519,20.461,14.451c-.139,12.227-7.652,9.037-7.652,9.037l-4.6-2.879-7.606-5.374-.2-.145v13.476A6,6,0,0,1,719.077,2571.745Z" transform="translate(-713.312 -2534.437)" fill="#39a6e7"/>
        <path id="Path_25860" data-name="Path 25860" d="M761.025,2570.77a5.465,5.465,0,0,1-4.016-1.795c-.329-.354-8.014-6.089-8.014-6.089.084-.007.167-.016.249-.026a7.31,7.31,0,0,0,6.1-7.461v-14.731c0-3.391,2.573-6.253,5.718-6.232a5.464,5.464,0,0,1,3.975,1.79,6.349,6.349,0,0,1,1.665,4.328v24.093A5.911,5.911,0,0,1,761.025,2570.77Z" transform="translate(-721.251 -2534.436)" fill="#39a6e7"/>
      </g>
      <g id="Group_63124" data-name="Group 63124" transform="translate(186.301)">
        <path id="Path_25861" data-name="Path 25861" d="M766.146,2519.312a5.548,5.548,0,0,1-4.076-1.82,6.458,6.458,0,0,1-1.688-4.4V2488.3a6.29,6.29,0,0,1,2.884-5.378,1.5,1.5,0,0,1,.158-.1,5.29,5.29,0,0,1,5.936.181l2.151,1.519,20.461,14.451c-.139,12.226-7.652,9.037-7.652,9.037l-4.6-2.88-7.605-5.373-.2-.145v13.476A6,6,0,0,1,766.146,2519.312Z" transform="translate(-760.382 -2482.004)" fill="#39a6e7"/>
        <path id="Path_25862" data-name="Path 25862" d="M808.094,2518.336a5.466,5.466,0,0,1-4.016-1.794c-.329-.355-8.014-6.088-8.014-6.088.084-.008.167-.017.25-.027a7.311,7.311,0,0,0,6.1-7.462v-14.731c0-3.391,2.573-6.253,5.718-6.231a5.457,5.457,0,0,1,3.975,1.789,6.345,6.345,0,0,1,1.665,4.329v24.092A5.911,5.911,0,0,1,808.094,2518.336Z" transform="translate(-768.321 -2482.003)" fill="#39a6e7"/>
      </g>
      <g id="Group_63125" data-name="Group 63125" transform="translate(200.172 28.196)">
        <path id="Path_25863" data-name="Path 25863" d="M783.987,2552.96a5.546,5.546,0,0,1-4.076-1.819,6.461,6.461,0,0,1-1.688-4.4v-24.793a6.29,6.29,0,0,1,2.884-5.378,1.275,1.275,0,0,1,.158-.094,5.283,5.283,0,0,1,5.936.179l2.152,1.52,20.461,14.451c-.138,12.226-7.651,9.036-7.651,9.036l-4.6-2.877-7.605-5.375-.2-.145v13.477A6,6,0,0,1,783.987,2552.96Z" transform="translate(-778.223 -2515.65)" fill="#39a6e7"/>
        <path id="Path_25864" data-name="Path 25864" d="M825.935,2551.984a5.462,5.462,0,0,1-4.016-1.794c-.33-.354-8.014-6.088-8.014-6.088.084-.007.167-.017.249-.027a7.309,7.309,0,0,0,6.1-7.461v-14.731c0-3.389,2.574-6.253,5.718-6.231a5.455,5.455,0,0,1,3.975,1.79,6.346,6.346,0,0,1,1.664,4.328v24.093A5.91,5.91,0,0,1,825.935,2551.984Z" transform="translate(-786.163 -2515.65)" fill="#39a6e7"/>
      </g>
      <g id="Group_63126" data-name="Group 63126" transform="translate(213.465 56.845)">
        <path id="Path_25865" data-name="Path 25865" d="M801.085,2587.147a5.549,5.549,0,0,1-4.076-1.82,6.46,6.46,0,0,1-1.688-4.4v-24.793a6.293,6.293,0,0,1,2.884-5.379,1.481,1.481,0,0,1,.158-.094,5.292,5.292,0,0,1,5.936.18l2.151,1.52,20.461,14.45c-.139,12.226-7.652,9.038-7.652,9.038l-4.6-2.879-7.606-5.373-.2-.146v13.476A6,6,0,0,1,801.085,2587.147Z" transform="translate(-795.321 -2549.839)" fill="#39a6e7"/>
        <path id="Path_25866" data-name="Path 25866" d="M843.033,2586.172a5.467,5.467,0,0,1-4.016-1.795c-.329-.355-8.013-6.088-8.013-6.088.084-.008.167-.017.249-.027a7.31,7.31,0,0,0,6.1-7.462v-14.731c0-3.389,2.573-6.253,5.718-6.23a5.455,5.455,0,0,1,3.975,1.789,6.347,6.347,0,0,1,1.665,4.328v24.092A5.912,5.912,0,0,1,843.033,2586.172Z" transform="translate(-803.261 -2549.839)" fill="#39a6e7"/>
      </g>
      <g id="Group_63127" data-name="Group 63127" transform="translate(205.925 158.08)">
        <path id="Path_25867" data-name="Path 25867" d="M791.387,2707.955a5.548,5.548,0,0,1-4.076-1.819,6.456,6.456,0,0,1-1.689-4.4v-24.793a6.292,6.292,0,0,1,2.884-5.378,1.261,1.261,0,0,1,.158-.095,5.288,5.288,0,0,1,5.936.179l2.152,1.52,20.461,14.451c-.139,12.226-7.652,9.037-7.652,9.037l-4.6-2.879-7.606-5.372-.2-.146v13.476A6,6,0,0,1,791.387,2707.955Z" transform="translate(-785.622 -2670.646)" fill="#39a6e7"/>
        <path id="Path_25868" data-name="Path 25868" d="M833.335,2706.979a5.466,5.466,0,0,1-4.017-1.793c-.33-.355-8.013-6.089-8.013-6.089.084-.008.167-.017.249-.027a7.311,7.311,0,0,0,6.1-7.461v-14.731c0-3.389,2.573-6.252,5.717-6.231a5.457,5.457,0,0,1,3.975,1.789,6.349,6.349,0,0,1,1.665,4.328v24.093A5.91,5.91,0,0,1,833.335,2706.979Z" transform="translate(-793.562 -2670.646)" fill="#39a6e7"/>
      </g>
      <g id="Group_63128" data-name="Group 63128" transform="translate(227.858 87.388)">
        <path id="Path_25869" data-name="Path 25869" d="M819.6,2623.6a5.546,5.546,0,0,1-4.076-1.819,6.46,6.46,0,0,1-1.688-4.4v-24.793a6.29,6.29,0,0,1,2.884-5.378,1.3,1.3,0,0,1,.158-.094,5.29,5.29,0,0,1,2.833-.826,5.345,5.345,0,0,1,3.1,1l2.152,1.52,20.461,14.451c-.139,12.226-7.652,9.036-7.652,9.036l-4.6-2.878-7.606-5.374-.2-.145v13.477A6,6,0,0,1,819.6,2623.6Z" transform="translate(-813.832 -2586.286)" fill="#39a6e7"/>
        <path id="Path_25870" data-name="Path 25870" d="M861.544,2622.621a5.462,5.462,0,0,1-4.016-1.795c-.33-.354-8.015-6.088-8.015-6.088.084-.008.167-.017.25-.027a7.31,7.31,0,0,0,6.1-7.462v-14.73c0-3.39,2.573-6.253,5.718-6.231a5.457,5.457,0,0,1,3.975,1.788,6.352,6.352,0,0,1,1.665,4.328V2616.5A5.911,5.911,0,0,1,861.544,2622.621Z" transform="translate(-821.771 -2586.287)" fill="#39a6e7"/>
      </g>
      <g id="Group_63129" data-name="Group 63129" transform="translate(268.992 172.881)">
        <path id="Path_25871" data-name="Path 25871" d="M872.5,2725.618a5.547,5.547,0,0,1-4.077-1.819,6.459,6.459,0,0,1-1.688-4.4v-24.793a6.29,6.29,0,0,1,2.885-5.378,1.2,1.2,0,0,1,.157-.095,5.291,5.291,0,0,1,5.936.179l2.152,1.52,20.461,14.45c-.139,12.227-7.652,9.036-7.652,9.036l-4.6-2.877-7.605-5.374-.2-.145V2719.4A6,6,0,0,1,872.5,2725.618Z" transform="translate(-866.738 -2688.311)" fill="#39a6e7"/>
        <path id="Path_25872" data-name="Path 25872" d="M914.451,2724.642a5.462,5.462,0,0,1-4.016-1.795c-.329-.354-8.014-6.087-8.014-6.087.084-.008.167-.016.249-.027a7.31,7.31,0,0,0,6.1-7.461v-14.73c0-3.391,2.573-6.254,5.718-6.232a5.462,5.462,0,0,1,3.974,1.789,6.348,6.348,0,0,1,1.666,4.329v24.092A5.911,5.911,0,0,1,914.451,2724.642Z" transform="translate(-874.677 -2688.309)" fill="#39a6e7"/>
      </g>
      <g id="Group_63130" data-name="Group 63130" transform="translate(282.864 201.077)">
        <path id="Path_25873" data-name="Path 25873" d="M890.344,2759.265a5.542,5.542,0,0,1-4.076-1.821,6.454,6.454,0,0,1-1.688-4.4v-24.792a6.289,6.289,0,0,1,2.885-5.378,1.415,1.415,0,0,1,.158-.1,5.286,5.286,0,0,1,5.936.181l2.151,1.519,20.461,14.451c-.139,12.226-7.652,9.037-7.652,9.037l-4.6-2.88-7.606-5.373-.2-.144v13.475A6,6,0,0,1,890.344,2759.265Z" transform="translate(-884.58 -2721.956)" fill="#39a6e7"/>
        <path id="Path_25874" data-name="Path 25874" d="M932.292,2758.29a5.469,5.469,0,0,1-4.017-1.793c-.329-.355-8.013-6.089-8.013-6.089.084-.008.167-.017.249-.027a7.311,7.311,0,0,0,6.1-7.462v-14.731c0-3.39,2.573-6.253,5.718-6.231a5.456,5.456,0,0,1,3.975,1.788,6.348,6.348,0,0,1,1.665,4.328v24.094A5.91,5.91,0,0,1,932.292,2758.29Z" transform="translate(-892.519 -2721.957)" fill="#39a6e7"/>
      </g>
      <g id="Group_63131" data-name="Group 63131" transform="translate(241.151 116.036)">
        <path id="Path_25875" data-name="Path 25875" d="M836.694,2657.783a5.545,5.545,0,0,1-4.076-1.82,6.458,6.458,0,0,1-1.688-4.4v-24.794a6.291,6.291,0,0,1,2.885-5.378,1.3,1.3,0,0,1,.158-.094,5.287,5.287,0,0,1,5.936.181L842.06,2623l20.461,14.451c-.139,12.226-7.652,9.037-7.652,9.037l-4.6-2.879-7.605-5.374-.2-.145v13.476A6,6,0,0,1,836.694,2657.783Z" transform="translate(-830.93 -2620.475)" fill="#39a6e7"/>
        <path id="Path_25876" data-name="Path 25876" d="M878.642,2656.808a5.467,5.467,0,0,1-4.016-1.793c-.329-.356-8.014-6.089-8.014-6.089.084-.008.167-.017.25-.027a7.311,7.311,0,0,0,6.1-7.462v-14.732c0-3.389,2.573-6.253,5.718-6.231a5.457,5.457,0,0,1,3.975,1.789,6.347,6.347,0,0,1,1.665,4.329v24.092A5.911,5.911,0,0,1,878.642,2656.808Z" transform="translate(-838.87 -2620.475)" fill="#39a6e7"/>
      </g>
      <g id="Group_63132" data-name="Group 63132" transform="translate(255.022 144.232)">
        <path id="Path_25877" data-name="Path 25877" d="M854.535,2691.43a5.547,5.547,0,0,1-4.076-1.819,6.462,6.462,0,0,1-1.688-4.4V2660.42a6.289,6.289,0,0,1,2.884-5.378,1.17,1.17,0,0,1,.158-.1,5.292,5.292,0,0,1,2.834-.824,5.347,5.347,0,0,1,3.1,1l2.152,1.519,20.461,14.45c-.139,12.227-7.652,9.038-7.652,9.038l-4.6-2.88-7.606-5.372-.2-.146v13.475A6,6,0,0,1,854.535,2691.43Z" transform="translate(-848.771 -2654.122)" fill="#39a6e7"/>
        <path id="Path_25878" data-name="Path 25878" d="M896.483,2690.456a5.464,5.464,0,0,1-4.016-1.8c-.33-.355-8.014-6.088-8.014-6.088.083-.007.167-.016.249-.026a7.312,7.312,0,0,0,6.1-7.462v-14.731c0-3.389,2.574-6.252,5.718-6.231a5.462,5.462,0,0,1,3.974,1.789,6.345,6.345,0,0,1,1.665,4.329v24.092A5.911,5.911,0,0,1,896.483,2690.456Z" transform="translate(-856.711 -2654.122)" fill="#39a6e7"/>
      </g>
    </g>
  </g>
</svg>
