<svg xmlns="http://www.w3.org/2000/svg" width="30" height="30" viewBox="0 0 30 30">
  <g id="Group_75" data-name="Group 75" transform="translate(-248 -595)">
    <path id="Path_205" data-name="Path 205" d="M5,0H25a5,5,0,0,1,5,5V25a5,5,0,0,1-5,5H5a5,5,0,0,1-5-5V5A5,5,0,0,1,5,0Z" transform="translate(248 595)" fill="#39a6e7" opacity="0.303"/>
    <path id="Path_204" data-name="Path 204" d="M25.416,5.834,25.3,4.208a3.458,3.458,0,0,0-6.9,0l-.12,1.627H16.545A1.374,1.374,0,0,0,15.19,7.1L14.377,18.53a1.347,1.347,0,0,0,.361,1.024,1.38,1.38,0,0,0,.994.437H27.976a1.324,1.324,0,0,0,.994-.437,1.347,1.347,0,0,0,.361-1.024L28.519,7.2A1.463,1.463,0,0,0,27.058,5.85H25.416ZM19.3,4.268a2.552,2.552,0,0,1,5.09,0L24.5,5.834H19.181Zm8.313,3,.813,11.326a.448.448,0,0,1-.12.346.484.484,0,0,1-.331.151H15.732a.464.464,0,0,1-.452-.5L16.094,7.16a.447.447,0,0,1,.452-.422h1.672l-.09,1.2a.445.445,0,0,0,.422.482h.03A.447.447,0,0,0,19.03,8l.09-1.265h5.452L24.663,8a.453.453,0,0,0,.9-.06l-.09-1.2h1.581A.571.571,0,0,1,27.615,7.265Z" transform="translate(241.146 599.504)" fill="#39a6e7" stroke="#39a6e7" stroke-width="0.5"/>
  </g>
</svg>
