<svg xmlns="http://www.w3.org/2000/svg" width="35" height="35.004" viewBox="0 0 35 35.004">
  <g id="svgexport-17_2_" data-name="svgexport-17 (2)" transform="translate(-0.5)">
    <path id="Path_166" data-name="Path 166" d="M34.56,15.225l0,0L20.278.944a3.222,3.222,0,0,0-4.557,0L1.45,15.215l-.014.015A3.221,3.221,0,0,0,3.58,20.72q.05,0,.1,0h.569V31.232A3.776,3.776,0,0,0,8.02,35h5.586a1.026,1.026,0,0,0,1.025-1.025V25.74a1.723,1.723,0,0,1,1.721-1.721h3.295a1.722,1.722,0,0,1,1.721,1.721v8.238A1.026,1.026,0,0,0,22.393,35H27.98a3.776,3.776,0,0,0,3.772-3.771V20.725h.528a3.223,3.223,0,0,0,2.281-5.5ZM33.108,18.33a1.164,1.164,0,0,1-.828.343H30.726A1.025,1.025,0,0,0,29.7,19.7V31.232a1.722,1.722,0,0,1-1.721,1.72H23.419V25.74a3.776,3.776,0,0,0-3.772-3.772H16.353a3.776,3.776,0,0,0-3.772,3.772v7.213H8.02A1.723,1.723,0,0,1,6.3,31.232V19.7a1.025,1.025,0,0,0-1.025-1.025H3.747l-.048,0a1.17,1.17,0,0,1-.807-2h0L17.172,2.394a1.171,1.171,0,0,1,1.656,0L33.1,16.669l.007.006A1.174,1.174,0,0,1,33.108,18.33Zm0,0" transform="translate(0 0)" fill="#8094ae"/>
  </g>
</svg>
