<svg xmlns="http://www.w3.org/2000/svg" width="119.017" height="91.044" viewBox="0 0 119.017 91.044">
  <g id="Group_177123" data-name="Group 177123" transform="translate(-131.347)">
    <g id="Group_63032" data-name="Group 63032" transform="translate(131.347 15.223)">
      <path id="Path_25685" data-name="Path 25685" d="M701.046,2536.865a5.369,5.369,0,0,1-3.943-1.758,6.247,6.247,0,0,1-1.632-4.254v-23.974a6.082,6.082,0,0,1,2.789-5.2,1.365,1.365,0,0,1,.153-.092,5.113,5.113,0,0,1,5.74.174l2.081,1.47L726.02,2517.2c-.135,11.823-7.4,8.74-7.4,8.74l-4.448-2.784-7.355-5.2-.2-.141v13.031A5.8,5.8,0,0,1,701.046,2536.865Z" transform="translate(-695.471 -2500.79)" fill="#fff"/>
      <path id="Path_25686" data-name="Path 25686" d="M742.786,2535.923a5.279,5.279,0,0,1-3.883-1.735c-.319-.343-7.749-5.887-7.749-5.887.081-.008.161-.016.241-.026a7.068,7.068,0,0,0,5.9-7.215v-14.245c0-3.278,2.489-6.046,5.53-6.025a5.279,5.279,0,0,1,3.844,1.73,6.136,6.136,0,0,1,1.609,4.185V2530A5.716,5.716,0,0,1,742.786,2535.923Z" transform="translate(-704.327 -2500.79)" fill="#fff"/>
    </g>
    <g id="Group_63033" data-name="Group 63033" transform="translate(144.76 42.487)">
      <path id="Path_25687" data-name="Path 25687" d="M718.887,2570.513a5.362,5.362,0,0,1-3.942-1.76,6.244,6.244,0,0,1-1.633-4.252v-23.974a6.083,6.083,0,0,1,2.79-5.2,1.34,1.34,0,0,1,.152-.093,5.116,5.116,0,0,1,5.74.175l2.081,1.469,19.785,13.974c-.135,11.823-7.4,8.739-7.4,8.739l-4.449-2.784-7.355-5.2-.2-.14V2564.5A5.8,5.8,0,0,1,718.887,2570.513Z" transform="translate(-713.312 -2534.437)" fill="#fff"/>
      <path id="Path_25688" data-name="Path 25688" d="M760.628,2569.57a5.285,5.285,0,0,1-3.884-1.735c-.318-.343-7.749-5.887-7.749-5.887.081-.007.162-.015.241-.025a7.069,7.069,0,0,0,5.9-7.215v-14.244c0-3.279,2.488-6.046,5.529-6.027a5.284,5.284,0,0,1,3.843,1.731,6.139,6.139,0,0,1,1.61,4.186v23.3A5.716,5.716,0,0,1,760.628,2569.57Z" transform="translate(-722.168 -2534.436)" fill="#fff"/>
    </g>
    <g id="Group_63034" data-name="Group 63034" transform="translate(180.149)">
      <path id="Path_25689" data-name="Path 25689" d="M765.956,2518.08a5.365,5.365,0,0,1-3.942-1.76,6.245,6.245,0,0,1-1.632-4.253v-23.974a6.082,6.082,0,0,1,2.789-5.2,1.483,1.483,0,0,1,.153-.092,5.115,5.115,0,0,1,5.74.175l2.08,1.469,19.786,13.973c-.134,11.822-7.4,8.739-7.4,8.739l-4.448-2.784-7.354-5.2-.2-.14v13.031A5.805,5.805,0,0,1,765.956,2518.08Z" transform="translate(-760.382 -2482.004)" fill="#fff"/>
      <path id="Path_25690" data-name="Path 25690" d="M807.7,2517.137a5.286,5.286,0,0,1-3.884-1.735c-.318-.343-7.749-5.886-7.749-5.886.081-.008.162-.016.241-.026a7.069,7.069,0,0,0,5.9-7.216v-14.245c0-3.279,2.488-6.047,5.529-6.026a5.278,5.278,0,0,1,3.843,1.73,6.135,6.135,0,0,1,1.61,4.186v23.3A5.716,5.716,0,0,1,807.7,2517.137Z" transform="translate(-769.237 -2482.003)" fill="#fff"/>
    </g>
    <g id="Group_63035" data-name="Group 63035" transform="translate(193.562 27.265)">
      <path id="Path_25691" data-name="Path 25691" d="M783.8,2551.728a5.364,5.364,0,0,1-3.942-1.759,6.248,6.248,0,0,1-1.632-4.253v-23.974a6.082,6.082,0,0,1,2.789-5.2,1.216,1.216,0,0,1,.153-.091,5.108,5.108,0,0,1,5.74.173l2.081,1.47,19.785,13.973c-.134,11.822-7.4,8.738-7.4,8.738l-4.449-2.782-7.354-5.2-.2-.14v13.032A5.8,5.8,0,0,1,783.8,2551.728Z" transform="translate(-778.223 -2515.65)" fill="#fff"/>
      <path id="Path_25692" data-name="Path 25692" d="M825.538,2550.785a5.282,5.282,0,0,1-3.883-1.735c-.319-.343-7.75-5.887-7.75-5.887.081-.007.161-.016.241-.026a7.068,7.068,0,0,0,5.9-7.214v-14.245c0-3.277,2.489-6.047,5.529-6.025a5.276,5.276,0,0,1,3.844,1.73,6.137,6.137,0,0,1,1.609,4.185v23.3A5.715,5.715,0,0,1,825.538,2550.785Z" transform="translate(-787.079 -2515.651)" fill="#fff"/>
    </g>
    <g id="Group_63036" data-name="Group 63036" transform="translate(206.416 54.968)">
      <path id="Path_25693" data-name="Path 25693" d="M800.895,2585.916a5.366,5.366,0,0,1-3.942-1.76,6.246,6.246,0,0,1-1.632-4.253v-23.974a6.085,6.085,0,0,1,2.789-5.2,1.418,1.418,0,0,1,.153-.091,5.117,5.117,0,0,1,5.74.174l2.08,1.47,19.786,13.973c-.135,11.822-7.4,8.74-7.4,8.74l-4.449-2.784-7.354-5.2-.2-.141V2579.9A5.8,5.8,0,0,1,800.895,2585.916Z" transform="translate(-795.321 -2549.839)" fill="#fff"/>
      <path id="Path_25694" data-name="Path 25694" d="M842.636,2584.972a5.287,5.287,0,0,1-3.884-1.735c-.318-.343-7.749-5.887-7.749-5.887.081-.008.162-.016.241-.026a7.068,7.068,0,0,0,5.9-7.216v-14.245c0-3.278,2.488-6.047,5.529-6.025a5.275,5.275,0,0,1,3.844,1.73,6.137,6.137,0,0,1,1.61,4.186v23.3A5.717,5.717,0,0,1,842.636,2584.972Z" transform="translate(-804.177 -2549.839)" fill="#fff"/>
    </g>
  </g>
</svg>
