<svg xmlns="http://www.w3.org/2000/svg" width="30" height="30" viewBox="0 0 30 30">
  <g id="Group_75" data-name="Group 75" transform="translate(-248 -595)">
    <path id="Path_205" data-name="Path 205" d="M5,0H25a5,5,0,0,1,5,5V25a5,5,0,0,1-5,5H5a5,5,0,0,1-5-5V5A5,5,0,0,1,5,0Z" transform="translate(248 595)" fill="#5754d7" opacity="0.303"/>
    <g id="svgexport-17_13_" data-name="svgexport-17 (13)" transform="translate(246.254 595.362)">
      <path id="Path_208" data-name="Path 208" d="M16.786,23.276a.663.663,0,0,1-.332-.089L9.548,19.2a.664.664,0,0,1-.332-.575V10.651a.664.664,0,0,1,.332-.575l6.905-3.987a.665.665,0,0,1,.664,0l6.9,3.987a.664.664,0,0,1,.332.575v7.973a.664.664,0,0,1-.332.575l-6.9,3.987A.663.663,0,0,1,16.786,23.276Zm-6.241-5.035,6.241,3.6,6.24-3.6V11.035l-6.24-3.6-6.241,3.6Z" transform="translate(-0.032 0)" fill="#5754d7"/>
      <path id="Path_209" data-name="Path 209" d="M30.665,39.3A.664.664,0,0,1,30,38.638V30.664a.664.664,0,0,1,1.329,0v7.973A.664.664,0,0,1,30.665,39.3Z" transform="translate(-13.911 -16.027)" fill="#5754d7"/>
      <path id="Path_210" data-name="Path 210" d="M16.753,23.3a.658.658,0,0,1-.332-.089L9.517,19.221a.664.664,0,1,1,.664-1.15l6.905,3.987a.664.664,0,0,1-.333,1.24Z" transform="translate(0 -7.995)" fill="#5754d7"/>
      <path id="Path_211" data-name="Path 211" d="M30.668,23.315a.665.665,0,0,1-.333-1.24l6.9-3.987A.664.664,0,1,1,37.9,19.24L31,23.226a.66.66,0,0,1-.332.089Z" transform="translate(-13.913 -8.013)" fill="#5754d7"/>
    </g>
  </g>
</svg>
