<svg xmlns="http://www.w3.org/2000/svg" width="24.214" height="23.813" viewBox="0 0 24.214 23.813">
  <g id="svgexport-6" transform="translate(-0.871 -1.083)">
    <path id="Path_83" data-name="Path 83" d="M3.17,13.772l5.98,3.054c.177.088.563.305.78-.048.2-.33-.137-.595-.3-.715L2.672,10.734a1.273,1.273,0,0,1,1.5-2.05l7.073,5.072c.129.1.482.354.739.056.257-.281-.024-.6-.137-.723L5.284,6.16A1.433,1.433,0,0,1,7.358,4.2l6.454,6.719c.1.1.394.4.7.177.313-.241.088-.595.032-.731L10.533,3.709a1.285,1.285,0,1,1,2.234-1.27l4.461,7.17a6.337,6.337,0,0,0,2.516,2.371c.683.322,1.214-.088,1.3-.8a19.652,19.652,0,0,1,.739-3.641,2.144,2.144,0,0,1,3.022-1.206L24.4,7.945a12.341,12.341,0,0,0-.177,5.032,26.656,26.656,0,0,1,.45,4.8c-.04,2.411-1.664,3.464-3.119,4.774-6.277,5.7-10.843-2.05-13.069-3.151l-6.47-3.593a1.137,1.137,0,0,1-.346-1.575,1.148,1.148,0,0,1,1.5-.458Z" transform="translate(-0.122 -0.136)" fill="#ffd869"/>
    <path id="Path_84" data-name="Path 84" d="M26.678,7.353a2.428,2.428,0,0,1,.563.185l-.41,1.616a12.341,12.341,0,0,0-.177,5.032,26.656,26.656,0,0,1,.45,4.8c-.04,2.411-1.664,3.464-3.119,4.774a7.714,7.714,0,0,1-3.376,1.921A6.757,6.757,0,0,0,25.3,23.613c1.455-1.31,3.07-2.363,3.119-4.774a26.515,26.515,0,0,0-.45-4.8,12.2,12.2,0,0,1,.177-5.032l.41-1.616A2.159,2.159,0,0,0,26.678,7.353Z" transform="translate(-3.874 -1.192)" fill="#f2c34e"/>
    <path id="Path_85" data-name="Path 85" d="M22.981,12.333a26.656,26.656,0,0,1,.45,4.8c-.04,2.411-1.664,3.464-3.119,4.774-2.508,2.275-4.742,2.4-6.663,1.672,2.186,1.326,4.871,1.8,7.973-1.021,1.455-1.31,3.07-2.363,3.119-4.774a26.516,26.516,0,0,0-.45-4.8c-.281-1.672-1.6-2.323-1.31-.651ZM6.11,4.344l7.154,7.371c.1.1.394.4.7.177.313-.241.088-.595.032-.731l-.313-.522L7.428,4.207A1.393,1.393,0,0,0,5.7,4.07a1.264,1.264,0,0,1,.41.273ZM2.863,8.877,10.707,14.5c.145.1.539.386.82.056.249-.265.048-.571-.088-.731l-7.121-5.1A1.4,1.4,0,0,0,2.7,8.789c.056.032.113.056.161.088Zm8.657-6.293,4.461,7.17A6.337,6.337,0,0,0,18.5,12.124a.822.822,0,0,0,1.109-.265A6.47,6.47,0,0,1,17.3,9.608l-4.461-7.17a1.291,1.291,0,0,0-1.776-.474.665.665,0,0,0-.121.088,1.551,1.551,0,0,1,.579.53ZM8.77,17.574c.2.1.659.354.908-.056a.412.412,0,0,0,.016-.418L3.313,13.836a1.3,1.3,0,0,0-1.463.2Z" transform="translate(-0.192 -0.136)" fill="#f2c34e"/>
    <path id="Path_86" data-name="Path 86" d="M16.849,24.938c-2.894,0-5.249-2.234-6.888-3.786a9.612,9.612,0,0,0-1.776-1.479L1.7,16.073a1.41,1.41,0,0,1-.675-.892A1.652,1.652,0,0,1,1.2,13.935a1.53,1.53,0,0,1,2.025-.619l5.98,3.054a1.127,1.127,0,0,0,.265.1,2.392,2.392,0,0,0-.209-.185L2.3,10.961a1.688,1.688,0,0,1-.322-2.267,1.67,1.67,0,0,1,1.093-.683,1.557,1.557,0,0,1,1.2.257l7.081,5.072c.145.113.2.121.217.121a.682.682,0,0,0-.129-.185L4.865,6.347A1.832,1.832,0,0,1,7.517,3.831l6.454,6.719a.463.463,0,0,0,.185.137,1.963,1.963,0,0,0-.08-.193L10.057,3.831a1.669,1.669,0,0,1,.595-2.291,1.693,1.693,0,0,1,2.331.611l4.453,7.17a6.079,6.079,0,0,0,2.347,2.226.517.517,0,0,0,.45.024.666.666,0,0,0,.281-.522,20.3,20.3,0,0,1,.756-3.713A2.49,2.49,0,0,1,22.7,5.809a2.639,2.639,0,0,1,2.162.088.4.4,0,0,1,.209.458l-.41,1.616a11.779,11.779,0,0,0-.169,4.863,26.382,26.382,0,0,1,.458,4.879c-.04,2.275-1.382,3.44-2.685,4.573-.185.161-.378.33-.563.5a7.251,7.251,0,0,1-4.855,2.154ZM2.542,13.959a.741.741,0,0,0-.643.386v.008a.856.856,0,0,0-.1.627.648.648,0,0,0,.289.394l6.462,3.593a9.523,9.523,0,0,1,1.953,1.608c2.564,2.427,6.068,5.755,10.65,1.6.193-.177.386-.338.579-.506,1.27-1.109,2.371-2.058,2.411-3.979a26.17,26.17,0,0,0-.442-4.726,12.576,12.576,0,0,1,.177-5.2L24.2,6.484a1.756,1.756,0,0,0-1.2.056,1.7,1.7,0,0,0-.973,1.037,19.576,19.576,0,0,0-.723,3.561,1.465,1.465,0,0,1-.683,1.125,1.277,1.277,0,0,1-1.182,0,6.737,6.737,0,0,1-2.685-2.532L12.3,2.562a.9.9,0,0,0-1.23-.338A.872.872,0,0,0,10.74,3.4l4.019,6.663c.354.7.121,1.061-.129,1.254-.217.161-.659.354-1.222-.2L6.947,4.386a1.021,1.021,0,0,0-1.318,0A1.01,1.01,0,0,0,5.46,5.8l6.559,6.912a.884.884,0,0,1,.137,1.278c-.113.129-.555.539-1.278-.008L3.8,8.919A.785.785,0,0,0,3.209,8.8a.877.877,0,0,0-.571.354.889.889,0,0,0,.153,1.173l6.953,5.321c.643.506.571.956.394,1.238-.185.305-.563.587-1.294.2L2.855,14.023a.809.809,0,0,0-.313-.064ZM6.5,23.451A6.269,6.269,0,0,1,.91,20a.4.4,0,0,1,.723-.362,5.465,5.465,0,0,0,5.024,3,.4.4,0,0,1,.41.394.394.394,0,0,1-.394.41A1.244,1.244,0,0,1,6.5,23.451Zm-.04-1.993h-.04a4.712,4.712,0,0,1-3.665-2.411.4.4,0,1,1,.707-.386,3.917,3.917,0,0,0,3.038,2,.4.4,0,0,1-.04.8Z" transform="translate(0 -0.042)" fill="#455a64"/>
    <path id="Path_87" data-name="Path 87" d="M23.476,6.787a.407.407,0,0,1-.4-.362A5.471,5.471,0,0,0,19.417,1.86a.4.4,0,0,1,.257-.756,6.287,6.287,0,0,1,4.2,5.241.4.4,0,0,1-.354.442h-.04Zm-1.953.4a.4.4,0,0,1-.394-.346A3.916,3.916,0,0,0,18.975,3.91a.4.4,0,1,1,.354-.723,4.734,4.734,0,0,1,2.6,3.537.406.406,0,0,1-.338.458C21.563,7.181,21.547,7.189,21.523,7.189Z" transform="translate(-3.508)" fill="#455a64"/>
  </g>
</svg>
