<svg xmlns="http://www.w3.org/2000/svg" width="29.814" height="33.921" viewBox="0 0 29.814 33.921">
  <g id="svgexport-17_7_" data-name="svgexport-17 (7)" transform="translate(-94.961 -97.78)">
    <path id="Path_201" data-name="Path 201" d="M23.928,33.921A4.975,4.975,0,0,0,28.48,30.94H19.375A4.975,4.975,0,0,0,23.928,33.921ZM34.2,16.421V14.244a10.287,10.287,0,0,0-7.288-9.827V2.981a2.981,2.981,0,0,0-5.963,0V4.417a10.287,10.287,0,0,0-7.288,9.827v2.177A15.6,15.6,0,0,1,9.3,27.271a.994.994,0,0,0,.717,1.682H37.841a.994.994,0,0,0,.717-1.682A15.6,15.6,0,0,1,34.2,16.421Zm-9.275-12.4c-.327-.032-.659-.048-.994-.048s-.667.017-.994.048V2.981a.994.994,0,1,1,1.988,0ZM36.847,14.244a.994.994,0,0,0,1.988,0A14.809,14.809,0,0,0,34.468,3.7a.994.994,0,0,0-1.405,1.405A12.835,12.835,0,0,1,36.847,14.244Zm-26.832.994a.994.994,0,0,0,.994-.994,12.835,12.835,0,0,1,3.784-9.135A.994.994,0,0,0,13.387,3.7,14.809,14.809,0,0,0,9.021,14.244.994.994,0,0,0,10.015,15.238Z" transform="translate(85.94 97.78)" fill="#39a6e7"/>
  </g>
</svg>
