<svg xmlns="http://www.w3.org/2000/svg" width="27.504" height="35.008" viewBox="0 0 27.504 35.008">
  <g id="Group_50" data-name="Group 50" transform="translate(-404.574 -856)">
    <g id="Group_49" data-name="Group 49" transform="translate(404.574 856)">
      <g id="svgexport-17_5_" data-name="svgexport-17 (5)" transform="translate(0 0)">
        <path id="Path_168" data-name="Path 168" d="M34.078,4.587H30.911V3.17c0-.458-.5-.667-.958-.667H27.494A3.728,3.728,0,0,0,23.785,0a3.792,3.792,0,0,0-3.709,2.5H17.659c-.458,0-.917.208-.917.667V4.587H13.575a3.542,3.542,0,0,0-3.5,3.375V31.841a3.353,3.353,0,0,0,3.5,3.167h20.5a3.353,3.353,0,0,0,3.5-3.167V7.962a3.542,3.542,0,0,0-3.5-3.376ZM18.409,4.17H20.7a.917.917,0,0,0,.792-.75,2.417,2.417,0,0,1,2.292-1.875,2.375,2.375,0,0,1,2.25,1.875.917.917,0,0,0,.833.75h2.375V7.5H18.409Zm17.5,27.671a1.69,1.69,0,0,1-1.834,1.5h-20.5a1.69,1.69,0,0,1-1.834-1.5V7.962a1.875,1.875,0,0,1,1.834-1.709h3.167V8.379a.875.875,0,0,0,.917.792H29.952a.917.917,0,0,0,.958-.792V6.254h3.167a1.875,1.875,0,0,1,1.834,1.709V31.841Z" transform="translate(-10.074 0)" fill="#707070"/>
        <path id="Path_169" data-name="Path 169" d="M27.653,38.351a.833.833,0,0,0-1.167-.042l-2.667,2.542-1.125-1.167a.834.834,0,0,0-1.167-.042.875.875,0,0,0,0,1.209l1.709,1.75a.75.75,0,0,0,.583.25.833.833,0,0,0,.583-.25l3.25-3.084A.792.792,0,0,0,27.7,38.4Q27.678,38.374,27.653,38.351Zm11.96,1.792H30.028a.833.833,0,1,0,0,1.667h9.585a.833.833,0,1,0,0-1.667Zm-11.96-8.46a.833.833,0,0,0-1.167-.042l-2.667,2.542-1.125-1.167a.833.833,0,0,0-1.167-.042.875.875,0,0,0,0,1.209l1.709,1.75a.75.75,0,0,0,.583.25.833.833,0,0,0,.583-.25l3.25-3.084a.792.792,0,0,0,.048-1.119q-.023-.025-.048-.048Zm11.96,1.792H30.028a.833.833,0,1,0,0,1.667h9.585a.833.833,0,1,0,0-1.667ZM27.653,45.019a.834.834,0,0,0-1.167-.042l-2.667,2.542-1.125-1.167a.834.834,0,0,0-1.167-.042.875.875,0,0,0,0,1.209l1.709,1.75a.75.75,0,0,0,.583.25.833.833,0,0,0,.583-.25l3.25-3.084a.792.792,0,0,0,.048-1.119Q27.678,45.042,27.653,45.019Zm11.96,1.792H30.028a.833.833,0,1,0,0,1.667h9.585a.833.833,0,1,0,0-1.667Z" transform="translate(-17.11 -19.721)" fill="#707070"/>
      </g>
    </g>
  </g>
</svg>
