<svg xmlns="http://www.w3.org/2000/svg" width="23.552" height="23.585" viewBox="0 0 23.552 23.585">
  <path id="Path_76" data-name="Path 76" d="M60.052,281.033a2.811,2.811,0,0,1-.276,1.2,4.557,4.557,0,0,1-.751,1.126,4.978,4.978,0,0,1-1.811,1.3,5.545,5.545,0,0,1-2.153.42,9.2,9.2,0,0,1-3.6-.806,19.4,19.4,0,0,1-3.8-2.186A31.748,31.748,0,0,1,44.04,279a31.374,31.374,0,0,1-3.081-3.611,19.687,19.687,0,0,1-2.164-3.766,9.3,9.3,0,0,1-.8-3.611,5.713,5.713,0,0,1,.4-2.131,5.083,5.083,0,0,1,1.27-1.844,3.235,3.235,0,0,1,2.3-1.038,2.075,2.075,0,0,1,.894.2,1.8,1.8,0,0,1,.74.618l2.562,3.611a3.779,3.779,0,0,1,.442.773,1.746,1.746,0,0,1,.155.674,1.5,1.5,0,0,1-.232.784,3.755,3.755,0,0,1-.618.784l-.839.872a.591.591,0,0,0-.177.442,1,1,0,0,0,.033.254c.033.088.066.155.088.221a9.164,9.164,0,0,0,1.027,1.414c.5.574,1.027,1.159,1.6,1.745.6.585,1.171,1.126,1.756,1.623a8.471,8.471,0,0,0,1.425,1.016c.055.022.121.055.2.088a.763.763,0,0,0,.276.044.607.607,0,0,0,.453-.188l.839-.828a3.388,3.388,0,0,1,.8-.618,1.47,1.47,0,0,1,.784-.232,1.761,1.761,0,0,1,.674.144,4.27,4.27,0,0,1,.773.431l3.655,2.6a1.675,1.675,0,0,1,.607.707A2.265,2.265,0,0,1,60.052,281.033Z" transform="translate(-37.25 -262.25)" fill="none" stroke="#99a9be" stroke-miterlimit="10" stroke-width="1.5"/>
</svg>
