<svg xmlns="http://www.w3.org/2000/svg" width="35" height="35.423" viewBox="0 0 35 35.423">
  <g id="svgexport-17_4_" data-name="svgexport-17 (4)" transform="translate(-9.965 -6.999)">
    <path id="Path_167" data-name="Path 167" d="M18.828,38.43l.491.868h0a1.46,1.46,0,0,1-.551,1.981l-1.683.954h0a1.46,1.46,0,0,1-1.981-.551l-4.95-8.746a1.458,1.458,0,0,1,.548-1.983L12.387,30h0a1.461,1.461,0,0,1,1.982.549h0l.4.709L19.2,28.7a4.967,4.967,0,0,1,4.114-.792,43.389,43.389,0,0,0,6.095,1.877.567.567,0,0,1,.074.019,2.3,2.3,0,0,1,1.574,2.77,2.549,2.549,0,0,1-.225.567,3.282,3.282,0,0,0,.82-.343l6-3.5c2.155-1.256,3.592-1.124,4.4-.579a2.356,2.356,0,0,1,1,2.048A2.333,2.333,0,0,1,42.04,32.7L31.15,39.4a4.547,4.547,0,0,1-3.681.523h0L19.8,37.87Zm-3.494-6.174,2.931,5.18,1.166-.673a.571.571,0,0,1,.434-.057l7.9,2.117a3.441,3.441,0,0,0,2.786-.392h0l10.89-6.705a1.144,1.144,0,0,0,.469-.9A1.182,1.182,0,0,0,41,29.5a4.169,4.169,0,0,0-2.766.791l-6,3.5a4.445,4.445,0,0,1-3.054.538h0l-.744-.121h0l-.023,0h0c-1.354-.278-2.61-.687-4-1.061a.571.571,0,1,1,.3-1.1c1.362.366,2.59.768,3.913,1.041a1.123,1.123,0,0,0,1.343-.8h0a1.161,1.161,0,0,0-.79-1.375,45.089,45.089,0,0,1-6.2-1.907h0a3.877,3.877,0,0,0-3.189.694Zm-1.958-1.14h0A.315.315,0,0,0,12.949,31l-1.685.954h0a.312.312,0,0,0-.116.425h0l4.95,8.746h0a.314.314,0,0,0,.426.117l1.682-.953h0a.314.314,0,0,0,.117-.426Zm-.653.932a.7.7,0,1,1-.591.791A.7.7,0,0,1,12.722,32.048ZM22.43,13.225a.571.571,0,0,1,.286-.495l3-1.731,2.449-1.414,3-1.731a.571.571,0,0,1,.571,0l8.446,4.876a.571.571,0,0,1,.286.495v9.752a.571.571,0,0,1-.286.495l-8.446,4.876a.571.571,0,0,1-.571,0l-8.446-4.876a.571.571,0,0,1-.286-.495ZM26,12.154l-1.856,1.071,7.3,4.216L33.3,16.37Zm2.449-1.414-1.306.754,7.3,4.217,1.306-.754Zm10.3,2.485-7.3-4.216L29.592,10.08,36.9,14.3ZM32.019,26.864l7.3-4.216V14.215l-1.856,1.071V18.8a.571.571,0,0,1-.286.495l-2.449,1.414a.571.571,0,0,1-.857-.495V17.36l-1.856,1.071Zm-8.446-12.65v8.433l7.3,4.216V18.431Zm12.751,1.731-1.307.754v2.522l1.307-.754Zm2.938-6.165a.571.571,0,0,1-1.1-.3l.553-2.062a.571.571,0,0,1,1.1.3Zm2.919,6.7a.571.571,0,0,1,.3-1.1l2.064.555a.571.571,0,1,1-.3,1.1Zm-.072-3.954a.571.571,0,0,1-.571-.99l1.852-1.069a.571.571,0,1,1,.571.99ZM24.737,9.485a.571.571,0,1,1-1.1.3l-.553-2.062a.571.571,0,0,1,1.1-.3Zm-4.32,5.9a.571.571,0,0,1,.3,1.1l-2.064.555a.571.571,0,0,1-.3-1.1Zm.941-3.84a.571.571,0,0,1-.571.99l-1.852-1.07a.571.571,0,0,1,.571-.99Z" fill="#707070" fill-rule="evenodd"/>
  </g>
</svg>
