<svg xmlns="http://www.w3.org/2000/svg" xmlns:xlink="http://www.w3.org/1999/xlink" width="33.128" height="24.093" viewBox="0 0 33.128 24.093">
  <defs>
    <clipPath id="clip-path">
      <rect id="Rectangle_15" data-name="Rectangle 15" width="33.128" height="24.093" fill="#fff"/>
    </clipPath>
  </defs>
  <g id="Group_14" data-name="Group 14" clip-path="url(#clip-path)">
    <rect id="Rectangle_14" data-name="Rectangle 14" width="33.128" height="24.093" rx="2.727" fill="#249f58"/>
    <path id="Path_53" data-name="Path 53" d="M348.541,470.559v-1.606H331.189l3.155,1.606h9.466c0,.887,1.06,1.607,2.365,1.607S348.541,471.446,348.541,470.559Zm-11.468-9.788a.171.171,0,0,0-.084.033.624.624,0,0,0-.258.442c-.005.117-.028.117.046.192.054.077.11.071.219.011a.235.235,0,0,0,.1-.154c.025-.129-.137.064-.158-.084s.068-.193.166-.321c0-.064,0-.113-.035-.116Zm1.581.009c-.031.007-.067.047-.119.141a.6.6,0,0,0-.079.562,1.721,1.721,0,0,1,.088.876,1.688,1.688,0,0,1-.166.237.262.262,0,0,1-.35.047.379.379,0,0,1-.21-.3,4.188,4.188,0,0,0-.031-.967.171.171,0,0,0-.287-.06,2.255,2.255,0,0,0-.521,1.093c-.078.263-.166.185-.225.08-.147-.141-.158-1.237-.335-1.055-.284.825.162,1.729.474,1.641.221.1.362-.337.454-.811.063-.134.11-.15.142-.081-.008.629.047.771.2.961a.508.508,0,0,0,.671.012l.276-.279a.164.164,0,0,1,.229-.012c.085.079.074.213.252.3.155.064.478.017.552-.117.1-.177.127-.237.173-.306.073-.1.2-.053.2-.022-.011.056-.084.113-.034.209.086.064.107.023.157.008.18-.086.316-.485.316-.485.008-.148-.074-.136-.126-.106-.071.043-.074.059-.142.1-.089.012-.259.072-.343-.061a5.167,5.167,0,0,1-.154-.547c0-.01-.115-.252-.009-.266.052.009.169.04.186-.059.057-.1-.121-.369-.243-.5a.258.258,0,0,0-.39-.012c-.1.093-.083.2-.1.294a.473.473,0,0,0,.1.4,1.226,1.226,0,0,1,.216.806.315.315,0,0,1-.285.148c-.078-.017-.2-.049-.267-.547a3.637,3.637,0,0,0-.142-1.145c-.036-.092-.066-.181-.117-.177Zm-.5.042c-.047,0-.1.061-.141.168a2.816,2.816,0,0,0-.075.515c-.031.128.131.183.205.019a1.58,1.58,0,0,0,.117-.559c-.015-.1-.059-.145-.106-.141Zm1.851.032c-.047.006-.087.035-.1.109a1.119,1.119,0,0,0,.02.407,1.394,1.394,0,0,0,.223.347c.32.438.632.879.928,1.333.047.341.079.671.1,1a20.388,20.388,0,0,1,.021,2.385c.133,0,.347-.22.421-.546a15.963,15.963,0,0,0-.022-1.652l-.015-.382c.347.579.681,1.188,1.009,1.857.121-.058.095-.748.025-.844-.265-.579-.631-1.151-.746-1.37-.042-.081-.186-.3-.354-.555-.032-.367-.066-.675-.088-.767-.055-.385.155.043.126-.18a2.5,2.5,0,0,0-.523-1c-.078-.113-.078-.138-.2.029a.732.732,0,0,0-.047.442c-.035-.047-.074-.1-.131-.173l-.4-.347A.452.452,0,0,0,340,460.854Zm5.484.059c-.024,0-.047.009-.08.052a.335.335,0,0,0-.11.257c.011.2.047.408.06.61l.017.081c-.022-.025-.041-.047-.052-.057-.39-.417.178-.071-.076-.391a3.082,3.082,0,0,0-.457-.459c-.1-.057-.149-.173-.179.023a4.2,4.2,0,0,0-.015.517.709.709,0,0,0,.155.321c.258.326.523.671.788,1.031.057.734.072,1.407.127,2.142-.007.315-.1.732-.19.771,0,0-.139.081-.23-.008a2.727,2.727,0,0,1-.335-.455.2.2,0,0,0-.326,0,4.6,4.6,0,0,0-.572,1.1c-.047.076-.179.141-.325-.006a1.553,1.553,0,0,1-.2-1.07,1.2,1.2,0,0,0-.11,1.152.9.9,0,0,0,.41.477.288.288,0,0,0,.433-.049c.2-.205.2-.734.289-.838a.17.17,0,0,1,.3-.074.776.776,0,0,0,.279.245.461.461,0,0,0,.615.044.72.72,0,0,0,.328-.409,14.284,14.284,0,0,0,.028-2.3l.41.6a15.591,15.591,0,0,1,.063,1.884c-.012.122.415-.359.411-.587,0-.2,0-.379,0-.546q.315.505.6,1.027c.119-.064.079-.743.006-.835-.2-.34-.455-.707-.652-.993-.04-.358-.092-.781-.117-.911-.036-.2-.074-.506-.131-.744a2.358,2.358,0,0,1-.046-.419c.022-.068.11,0,.152-.076a2.732,2.732,0,0,0-.371-1.051c-.052-.1-.148-.064-.265.1-.11.1-.068.34-.028.566.107.579.2,1.163.28,1.75-.142-.216-.316-.477-.486-.726l-.022-.113c0-.012-.022-.474-.043-.583,0-.045-.015-.057.032-.051a.279.279,0,0,0,.084.057c.05.007.094-.077.063-.156l-.457-.858a.1.1,0,0,0-.064-.043Zm-14.151.017c-.086,0-.178.049-.141.152-.022.056.163.246.2.35.028.076-.031.314.032.338s.133-.168.161-.342c.015-.1,0-.427-.216-.495a.172.172,0,0,0-.035,0Zm16.122,0c-.02,0-.044.032-.078.113a1.026,1.026,0,0,0-.082.626,35.952,35.952,0,0,1,.394,4.08,1.444,1.444,0,0,1-.079.337,2.574,2.574,0,0,1-.386.456c-.126.1-.4.19-.486.261-.284.163-.284.353-.056.361a1.4,1.4,0,0,0,1.174-.57,1.908,1.908,0,0,0,.189-.739,17.3,17.3,0,0,0-.213-3.608,1.9,1.9,0,0,1-.038-.338c.023-.067.151.006.2-.071.067-.071-.331-.59-.47-.811-.029-.055-.047-.1-.07-.1Zm-4.106.022c-.017,0-.039.03-.083.088a1.941,1.941,0,0,0-.1.887,19.556,19.556,0,0,1,.523,4.272c.133,0,.287-.309.353-.618a5.48,5.48,0,0,0-.034-.931c-.011-.251-.278-2.275-.331-2.462-.066-.357.258-.049.223-.254-.113-.263-.394-.643-.479-.872-.031-.061-.038-.117-.063-.113Zm-9.992.03a.108.108,0,0,0-.078.079c-.008.032.012.085-.017.1s-.075,0-.072-.081a.156.156,0,0,0-.032-.075.073.073,0,0,0-.042-.008c-.028,0-.028.008-.042.032a.276.276,0,0,0-.015.071c0,.032-.015.04-.036.044s-.02,0-.039-.011-.029-.015-.029-.039a.244.244,0,0,0-.013-.077.073.073,0,0,0-.046-.026c-.1,0-.11.125-.106.17-.008.01-.011.225.13.286.19.093.55.053.537-.261,0-.028-.008-.12-.011-.145a.083.083,0,0,0-.089-.06Zm2.565,0a.414.414,0,0,0-.173.049.34.34,0,0,0-.057.445c.095.049.194.145.13.2-.275.3-.989.8-1.026.888v.01h.007v0a1.958,1.958,0,0,0,.533,0h0a7.677,7.677,0,0,0,.883-.908c-.038-.032-.072-.057-.11-.092s-.035-.071,0-.106a.3.3,0,0,0,.029-.449.44.44,0,0,0-.218-.043Zm6.7,0c-.019.005-.042.033-.078.113a1.245,1.245,0,0,0-.137.627c.186,1.316.243,2.468.366,3.785a.527.527,0,0,1-.092.385,3.671,3.671,0,0,1-1.235.915c-.052.06.129.311.362.311a1.387,1.387,0,0,0,1.057-.859,1.546,1.546,0,0,0,.237-.658,14.471,14.471,0,0,0-.262-3.341.584.584,0,0,1,.012-.234c.025-.032.11,0,.158-.075.066-.071-.18-.648-.319-.868-.028-.056-.044-.1-.07-.1Zm-10.386.044a.165.165,0,0,0-.129.113,3.63,3.63,0,0,0,.015.613,6.741,6.741,0,0,1,.167.992c.017.468-.265.2-.252-.03a2.16,2.16,0,0,0-.01-.9c-.047-.12-.1-.149-.208-.129-.087-.006-.312.242-.375.659a3.606,3.606,0,0,0-.076.4c-.032.214-.17.367-.268-.029-.084-.289-.134-1-.274-.832-.042.552-.088,1.526.372,1.626.558.054.248-.961.451-1.145.04-.088.11-.091.116.024v.862a.409.409,0,0,0,.315.421c.147-.011.243-.007.3.138l.071,1.494s.338.1.353-.84a8.668,8.668,0,0,1-.036-1.12c0-.106.136-.113.228-.06.147.1.211.233.438.182.347-.1.552-.267.557-.537a2.23,2.23,0,0,0-.158-.771c.017-.045-.063-.166-.046-.212.06.1.155.089.173,0a.751.751,0,0,0-.3-.466c-.121-.113-.3-.088-.366.139a1.242,1.242,0,0,0,.284.83.848.848,0,0,1,.07.415.219.219,0,0,1-.284-.056s-.274-.209-.274-.257a1,1,0,0,0-.023-.658.928.928,0,0,0-.181-.367c-.07-.075-.162-.075-.205,0a1.261,1.261,0,0,0,.022.879c.063.189.161.308.115.308-.038.1-.116.081-.173-.043a3.253,3.253,0,0,1-.1-.808c-.024-.212-.051-.667-.19-.782a.129.129,0,0,0-.121-.065Zm1.959,0c-.026.007-.059.022-.095.032a.278.278,0,0,0-.193.343c.141.868.232,1.531.372,2.4.02.1-.063.236-.171.224-.182-.128-.229-.385-.541-.372a.61.61,0,0,0-.517.495,1.235,1.235,0,0,0,0,.569.448.448,0,0,0,.517.128c.138-.056.253-.192.3-.16.031.053,0,.5-.647.851-.4.182-.713.224-.883-.1-.1-.206.01-.989-.25-.811-.766,2.012,1.794,2.291,2.079.084.019-.064.074-.125.116-.109.015.008.031.032.038.077-.06,2-1.981,2.137-2.307,1.506a1.96,1.96,0,0,1-.114-.675.344.344,0,0,0-.078-.216c-.078-.06-.183.1-.205.364a2.593,2.593,0,0,0-.023.486c.1,1.578,2.576.9,2.978-.4a4.485,4.485,0,0,0,.063-1.247l0,0h.006l.008,0c.246.271.59.032.666-.059a.106.106,0,0,1,.17-.017.4.4,0,0,0,.6-.177,5.4,5.4,0,0,0,.084-.746.755.755,0,0,0-.268.112.094.094,0,0,0-.019.038l-.032.213a.021.021,0,0,1-.007.017.068.068,0,0,1-.022.024c-.044.024-.121.011-.126-.055-.059-.273-.3-.308-.451.117-.1.081-.285.1-.3-.025.024-.286-.089-.325-.316-.189l-.218-1.671c.1-.006.18.064.268-.045a3.218,3.218,0,0,0-.4-.954h0l-.017-.015s0-.006-.008-.007l-.007-.01a.052.052,0,0,1-.015,0,.1.1,0,0,0-.031,0Zm7.638.007c-.1,0-.205.059-.163.184-.025.068.21.3.247.425.067.193-.052.381.019.409s.158-.2.189-.415a.635.635,0,0,0-.252-.6l-.04,0Zm-5.952.21a.153.153,0,0,1,.126.1c.028.065.013.124-.031.136a.137.137,0,0,1-.136-.094c-.029-.064-.015-.124.032-.135h.009Zm11.038.293a.144.144,0,0,0-.148.2c-.022.074.189.324.225.463.031.1-.047.411.015.439s.142-.219.173-.449c.019-.129-.072-.571-.229-.649a.126.126,0,0,0-.036-.007Zm-6.105.154a.787.787,0,0,1,.024.113c.019.081.034.161.05.244-.068-.1-.126-.18-.152-.209C340.586,461.646,340.747,461.713,340.822,461.69Zm1.409.7a.1.1,0,0,0-.078.085c-.01.029.012.08-.017.1s-.078.007-.074-.081a.146.146,0,0,0-.031-.075.069.069,0,0,0-.043-.011c-.027,0-.027.008-.041.032a.238.238,0,0,0-.015.072.043.043,0,0,1-.035.049.053.053,0,0,1-.041-.011c-.012-.017-.027-.02-.027-.042a.231.231,0,0,0-.013-.077.076.076,0,0,0-.047-.028c-.1,0-.11.123-.1.168-.007.009-.011.227.131.288.192.092.552.049.536-.263,0-.028-.008-.12-.009-.145a.085.085,0,0,0-.091-.06Zm-6.42.064a.178.178,0,0,0-.091.029.4.4,0,0,0-.126.53.246.246,0,0,0,.273.092c.166.022.264-.315.264-.315s0-.1-.19.083c-.085.017-.094-.015-.116-.064a.4.4,0,0,1,.023-.262c.019-.053,0-.086-.038-.089Zm9.075.043a.218.218,0,0,0-.221.188c0,.077.035.119.029.19-.008.04-.047.064-.145.019.015-.015-.064-.125-.064-.125-.074-.049-.173,0-.24.045a.378.378,0,0,0-.022.3c.107.2.478.551.655.553,0-.182.021-.426.032-.578,0-.059.015-.12.071-.135s.147.054.147-.006a.814.814,0,0,0-.095-.369.193.193,0,0,0-.145-.081Zm-7.513.637,0,.006a.007.007,0,0,0-.006,0,.616.616,0,0,1-.089.079.434.434,0,0,0-.1.359c.007.021.158.454.289.758a2.4,2.4,0,0,1,.11,1.021,2.489,2.489,0,0,1-1.015,1.081.526.526,0,0,1-.426,0,.27.27,0,0,1-.11-.247v0a2.421,2.421,0,0,0,1.018-1.071,1.112,1.112,0,0,0,.029-.771.754.754,0,0,0-.174-.36h0c.057-.028.205.084.229.016a1.147,1.147,0,0,0-.292-.55.244.244,0,0,0-.36-.023c-.123.071-.148.321-.089.54.066.163.244.192.371.526a.626.626,0,0,1-.021.341,4.046,4.046,0,0,1-.765.73l0,0,0,0h-.007v-.006c0-.012,0-.047,0-.1,0-.1.036-.327.032-.367v0c-.221.145-.295.586-.335.718a10.5,10.5,0,0,0-1.553,1.077c-.189.3,1.306-.345,1.48-.423l.006.005c.034.036.036.165.136.283a.785.785,0,0,0,.807.263,2.564,2.564,0,0,0,1.167-.987c.044-.065.115-.119.181-.068a1.819,1.819,0,0,0,1.654.883c.189-.231.1-.344.023-.393-.023-.016-.4-.167-.463-.316-.035-.139.054-.263.234-.353a8.084,8.084,0,0,0,1.527-.3,1.367,1.367,0,0,1,.169-.533.234.234,0,0,1,.085-.093v0h0v-.021l-.086-.052-1.661-.006a.215.215,0,0,1-.044-.024l0-.005a0,0,0,0,1,0,0,0,0,0,0,0,0,0h0v-.01l0,0a.177.177,0,0,1,.053-.032c.4-.053,1.1-.17,1.148-.859a.558.558,0,1,0-1.093.022c-.017.092.031.273-.064.294-.608.059-1.274.447-1.3.727h-.009s0,0-.006,0h-.015a.167.167,0,0,1-.082-.172,3.4,3.4,0,0,0-.419-1.445c-.086-.088-.126-.124-.148-.129h-.014Zm1.59.254a.107.107,0,0,0-.078.084c-.009.032.015.084-.013.1s-.078.007-.075-.081a.165.165,0,0,0-.032-.075.064.064,0,0,0-.041-.01c-.027,0-.029.007-.043.029a.239.239,0,0,0-.015.073c0,.032-.015.042-.036.045s-.019,0-.04-.009-.028-.019-.028-.041a.33.33,0,0,0-.011-.081.127.127,0,0,0-.047-.023c-.106,0-.11.121-.106.168-.008.008-.012.224.129.286.19.093.647.039.537-.262,0-.028-.008-.121-.01-.145a.083.083,0,0,0-.091-.06Zm6.412.268h-.015s-.887.643-.908.665c-.088.081-.044.359,0,.327a3.549,3.549,0,0,0,.938-.664c.04,0,.059-.317-.015-.329Zm-5.574.1a.227.227,0,0,1,.126.033c.067.041.11.1.1.144v.007s0,0,0,0v0a0,0,0,0,0,0,0s0,.007-.008.01c-.032.032-.1.025-.173-.017a.174.174,0,0,1-.1-.138v0l.008-.017a0,0,0,0,1,0,0l.008-.01a.075.075,0,0,1,.043-.015Zm-7.759.161a1.49,1.49,0,0,0-1.148.947l1.451-.707C332.266,464.037,332.34,463.928,332.042,463.918Zm1.487.209a.131.131,0,0,1,.117.089.154.154,0,0,1-.028.151v.005c-.022.025-.088.016-.137.016a.133.133,0,0,1-.121-.061c-.019-.056.032-.109.055-.148l.011-.017a.142.142,0,0,1,.079-.032l.02,0Zm11.673.188a.158.158,0,0,0-.126.214c-.022.074.11.332.147.468.032.1-.041.374.023.4s.216-.16.212-.407c.015-.129-.044-.6-.2-.671a.162.162,0,0,0-.056-.005Zm-9.913.456c-.072.005-.137.044-.107.148,0,.074.205.166.216.338.029.073-.047.3.015.324s.136-.16.166-.327c.015-.094-.073-.419-.221-.477a.194.194,0,0,0-.071-.007Zm2.966.412h.019a4.748,4.748,0,0,0,.695.08c.193.017.288.168.11.233s-.352.113-.352.373a.363.363,0,0,1,0,.224.014.014,0,0,1-.006.01,0,0,0,0,1,0,0v0h-.006l-.011,0h-.008c-.042.009-.1-.032-.149-.057a.953.953,0,0,1-.463-.691.174.174,0,0,1,.173-.184Zm-7.247.321c-.011,0-.031.035-.063.075a1.481,1.481,0,0,0-.148,1.3.317.317,0,0,0,.309.1.576.576,0,0,0,.2-.56c-.055-.091-.1-.106-.157-.029-.121.25-.174.077-.182-.064a3.2,3.2,0,0,1,.035-.7c.015-.1.015-.133,0-.133Zm9.3.581a.117.117,0,0,0-.063.017,1.106,1.106,0,0,0-.257.221c-.038.03-.031.053-.022.1.029.068.079.049.139.016.079-.012.115.041.11.136a.177.177,0,0,0,.015.171.13.13,0,0,0,.163.021,2.915,2.915,0,0,1,.56-.2c.067,0,.063-.186-.044-.192a.627.627,0,0,0-.411.128c-.086.02-.1-.035-.121-.083-.022-.119.051-.2.035-.293a.217.217,0,0,0-.106-.042Zm5.958.225-.127.012c-.056.012-.075.038-.086.108,0,.1.067.1.134.141.039.047.063.093,0,.177-.063.056-.1.088-.168.145-.028.051-.047.128.044.154.166.049.549-.205.549-.209a.128.128,0,0,0,.036-.139c-.039-.042-.12-.017-.174-.024-.027,0-.11-.013-.072-.091a.5.5,0,0,0,.071-.135c.023-.057,0-.1-.092-.128a.4.4,0,0,0-.115-.011Zm-2.292,6.2c.426.021.824.006,1.247.026a.155.155,0,0,1-.009.214l-.008,0H345.2l-.357-.009v-.021c-.034-.1-.271-.094-.328-.017v.005s0,0,0,.006l0,.009v.019a3.157,3.157,0,0,1-.541-.013c-.055-.068-.047-.192.015-.224Z" transform="translate(-323.301 -454.499)" fill="#fff" fill-rule="evenodd"/>
  </g>
</svg>
